<?xml version="1.0" encoding="utf-8"?>
<!-- Generator: Adobe Illustrator 23.0.3, SVG Export Plug-In . SVG Version: 6.00 Build 0)  -->
<svg version="1.1"
	 id="svg8" xmlns:cc="http://creativecommons.org/ns#" xmlns:dc="http://purl.org/dc/elements/1.1/" xmlns:rdf="http://www.w3.org/1999/02/22-rdf-syntax-ns#" xmlns:svg="http://www.w3.org/2000/svg"
	 xmlns="http://www.w3.org/2000/svg" xmlns:xlink="http://www.w3.org/1999/xlink" x="0px" y="0px" viewBox="0 0 2950 2130"
	 style="enable-background:new 0 0 2950 2130;" xml:space="preserve">
<style type="text/css">
	.st0{stroke:#FFFFFF;stroke-width:1.3229;}
	.st1{fill:#193ED9;}
	.st2{fill:#4543E2;}
	.st3{fill:#2046F0;}
	.st4{fill:#9184D6;}
	.st5{fill:#E7EDED;}
	.st6{fill:#72B9CE;}
	.st7{fill:#613ABE;}
	.st8{fill:#4F33A9;}
	.st9{fill:#097DF8;}
	.st10{fill:#024CEF;}
	.st11{fill:#379DF0;}
	.st12{fill:#1840D3;}
	.st13{fill:#046FF2;}
	.st14{fill:#228CFB;}
	.st15{fill:#2544D3;}
	.st16{fill:#0E36C0;}
	.st17{fill:#5ABA97;}
	.st18{fill:#3E9ACC;}
	.st19{fill:#4AA097;}
	.st20{fill:#5AB150;}
	.st21{fill:#E6D966;}
	.st22{fill:#F1F0BA;}
	.st23{fill:#488D09;}
	.st24{fill:#63C56E;}
	.st25{fill:#E94259;}
	.st26{fill:#E75C32;}
	.st27{fill:#F08F65;}
	.st28{fill:#FBF751;}
	.st29{fill:#FCDA33;}
	.st30{fill:#EC6433;}
	.st31{fill:#EF8233;}
	.st32{fill:#D5782D;}
	.st33{fill:#D3407A;}
	.st34{fill:#9A271F;}
	.st35{fill:#D2382D;}
	.st36{fill:#E33D32;}
	.st37{fill:#DE4691;}
	.st38{fill:#E864CE;}
	.st39{fill:#D0A1C1;}
	.st40{fill:#F3F1CC;}
	.st41{fill:#CCEBF3;}
	.st42{fill:#F0EA92;}
	.st43{fill:#91E8FF;}
	.st44{fill:#22D2FF;}
	.st45{fill:#FFFFFF;}
	.st46{display:none;}
</style>
<g id="layer3">
	<rect id="rect1042" x="-80" y="-30" class="st0" width="3120" height="2240"/>
</g>
<g id="layer1" transform="translate(0,266.5625)">
	<path id="circle3789" class="st1" d="M235.6-180.9c0-111.5-90.4-201.9-201.9-201.9c0,0,0,0,0,0c-111.5,0-201.9,90.4-201.9,201.9
		l0,0C-168.2-69.4-77.8,21,33.7,21c0,0,0,0,0,0C145.2,21,235.6-69.4,235.6-180.9L235.6-180.9z"/>
	<path id="circle3791" class="st2" d="M235.6,222.8C235.6,111.4,145.2,21,33.7,21s-201.9,90.4-201.9,201.9
		c0,111.5,90.4,201.9,201.9,201.9S235.6,334.3,235.6,222.8L235.6,222.8z"/>
	<path id="circle3795" class="st3" d="M235.6,1030.3c0,111.5-90.4,201.9-201.9,201.9h0c-111.5,0-201.9-90.4-201.9-201.9
		s90.4-201.9,201.9-201.9S235.6,918.8,235.6,1030.3L235.6,1030.3z"/>
	<path id="circle3797" class="st4" d="M235.6,1434c0,111.5-90.4,201.9-201.9,201.9c0,0,0,0,0,0c-111.5,0-201.9-90.4-201.9-201.9l0,0
		c0-111.5,90.4-201.9,201.9-201.9S235.6,1322.5,235.6,1434z"/>
	<path id="circle3799" class="st5" d="M235.6,1837.7c0,111.5-90.4,201.9-201.9,201.9c0,0,0,0,0,0c-111.5,0-201.9-90.4-201.9-201.9
		l0,0c0-111.5,90.4-201.9,201.9-201.9c0,0,0,0,0,0C145.2,1635.9,235.6,1726.2,235.6,1837.7L235.6,1837.7z"/>
	<path id="circle3801" class="st6" d="M484.4,427.2c0-86.3-69.9-156.2-156.2-156.2s-156.2,69.9-156.2,156.2
		c0,86.3,69.9,156.2,156.2,156.2S484.4,513.5,484.4,427.2z"/>
	<path id="circle3803" class="st7" d="M484.4,827.4c0,86.3-69.9,156.2-156.2,156.2l0,0c-86.3,0-156.2-69.9-156.2-156.2c0,0,0,0,0,0
		c0-86.3,69.9-156.2,156.2-156.2S484.4,741.1,484.4,827.4z"/>
	<path id="circle3807" class="st8" d="M484.4,1635.8c0,86.3-69.9,156.2-156.2,156.2s-156.2-69.9-156.2-156.2
		c0-86.3,69.9-156.2,156.2-156.2h0C414.4,1479.5,484.4,1549.5,484.4,1635.8L484.4,1635.8z"/>
	<path id="circle3809" class="st9" d="M1072.4,21c0,86.3-69.9,156.2-156.2,156.2c-86.3,0-156.2-69.9-156.2-156.2
		s69.9-156.2,156.2-156.2C1002.4-135.2,1072.4-65.3,1072.4,21z"/>
	<path id="circle3813" class="st10" d="M823.6,222.8c0,111.5-90.4,201.9-201.9,201.9c-111.5,0-201.9-90.4-201.9-201.9
		C419.8,111.4,510.2,21,621.7,21h0C733.2,21,823.6,111.4,823.6,222.8L823.6,222.8z"/>
	<path id="circle3815" class="st11" d="M823.6,626.6c0,111.5-90.4,201.9-201.9,201.9l0,0c-111.5,0-201.9-90.4-201.9-201.9
		s90.4-201.9,201.9-201.9S823.6,515.1,823.6,626.6C823.6,626.6,823.6,626.6,823.6,626.6z"/>
	<path id="circle3817" class="st12" d="M823.6,1030.3c0,111.5-90.4,201.9-201.9,201.9l0,0c-111.5,0-201.9-90.4-201.9-201.9
		s90.4-201.9,201.9-201.9S823.6,918.8,823.6,1030.3L823.6,1030.3z"/>
	<path id="circle3819" class="st13" d="M823.6,1434c0,111.5-90.4,201.9-201.9,201.9h0c-111.5,0-201.9-90.4-201.9-201.9l0,0
		c0-111.5,90.4-201.9,201.9-201.9S823.6,1322.5,823.6,1434z"/>
	<path id="circle3823" class="st14" d="M1072.4,427.2c0,86.3-69.9,156.2-156.2,156.2c-86.3,0-156.2-69.9-156.2-156.2v0
		c0-86.3,69.9-156.2,156.2-156.2C1002.4,271,1072.4,340.9,1072.4,427.2z"/>
	<path id="circle3827" class="st15" d="M1072.4,1231.6c0,86.3-69.9,156.2-156.2,156.2s-156.2-69.9-156.2-156.2v0
		c0-86.3,69.9-156.2,156.2-156.2C1002.4,1075.3,1072.4,1145.3,1072.4,1231.6z"/>
	<path id="circle3829" class="st16" d="M1072.4,1635.8c0,86.3-69.9,156.2-156.2,156.2c-86.3,0-156.2-69.9-156.2-156.2
		c0-86.3,69.9-156.2,156.2-156.2h0C1002.4,1479.5,1072.4,1549.5,1072.4,1635.8z"/>
	<path id="circle3833" class="st17" d="M1411.6-180.9c0,111.5-90.4,201.9-201.9,201.9c-111.5,0-201.9-90.4-201.9-201.9v0
		c0-111.5,90.4-201.9,201.9-201.9l0,0C1321.2-382.7,1411.6-292.4,1411.6-180.9L1411.6-180.9L1411.6-180.9z"/>
	<path id="circle3837" class="st18" d="M1411.6,626.6c0,111.5-90.4,201.9-201.9,201.9l0,0c-111.5,0-201.9-90.4-201.9-201.9
		c0,0,0,0,0,0c0-111.5,90.4-201.9,201.9-201.9l0,0C1321.2,424.7,1411.6,515.1,1411.6,626.6C1411.6,626.6,1411.6,626.6,1411.6,626.6z
		"/>
	<path id="circle3841" class="st19" d="M1411.6,1434c0,111.5-90.4,201.9-201.9,201.9c-111.5,0-201.9-90.4-201.9-201.9l0,0
		c0-111.5,90.4-201.9,201.9-201.9C1321.2,1232.1,1411.6,1322.5,1411.6,1434L1411.6,1434z"/>
	<path id="circle3843" class="st20" d="M1411.6,1837.7c0,111.5-90.4,201.9-201.9,201.9s-201.9-90.4-201.9-201.9l0,0
		c0-111.5,90.4-201.9,201.9-201.9l0,0C1321.2,1635.9,1411.6,1726.2,1411.6,1837.7L1411.6,1837.7L1411.6,1837.7z"/>
	<path id="circle3845" class="st21" d="M1660.4,427.2c0,86.3-69.9,156.2-156.2,156.2c-86.3,0-156.2-69.9-156.2-156.2
		S1417.9,271,1504.2,271C1590.4,271,1660.4,340.9,1660.4,427.2z"/>
	<path id="circle3847" class="st22" d="M1660.4,827.4c0,86.3-69.9,156.2-156.2,156.2c-86.3,0-156.2-69.9-156.2-156.2
		s69.9-156.2,156.2-156.2C1590.4,671.2,1660.4,741.1,1660.4,827.4L1660.4,827.4z"/>
	<path id="circle3849" class="st23" d="M1660.4,1231.6c0,86.3-69.9,156.2-156.2,156.2c-86.3,0-156.2-69.9-156.2-156.2
		s69.9-156.2,156.2-156.2C1590.4,1075.3,1660.4,1145.3,1660.4,1231.6z"/>
	<path id="circle3851" class="st24" d="M1660.4,1635.8c0,86.3-69.9,156.2-156.2,156.2c-86.3,0-156.2-69.9-156.2-156.2
		c0-86.3,69.9-156.2,156.2-156.2C1590.4,1479.5,1660.4,1549.5,1660.4,1635.8z"/>
	<path id="circle3853" class="st25" d="M2248.4,21c0,86.3-69.9,156.2-156.2,156.2c-86.3,0-156.2-69.9-156.2-156.2
		s69.9-156.2,156.2-156.2C2178.4-135.2,2248.4-65.3,2248.4,21z"/>
	<path id="circle3855" class="st26" d="M1999.6-180.9c0,111.5-90.4,201.9-201.9,201.9l0,0c-111.5,0-201.9-90.4-201.9-201.9v0
		c0-111.5,90.4-201.9,201.9-201.9l0,0C1909.2-382.7,1999.6-292.4,1999.6-180.9L1999.6-180.9z"/>
	<path id="circle3857" class="st27" d="M1999.6,222.8c0,111.5-90.4,201.9-201.9,201.9c-111.5,0-201.9-90.4-201.9-201.9
		S1686.2,21,1797.7,21l0,0C1909.2,21,1999.6,111.4,1999.6,222.8L1999.6,222.8z"/>
	<path id="circle3859" class="st28" d="M1999.6,626.6c0,111.5-90.4,201.9-201.9,201.9l0,0c-111.5,0-201.9-90.4-201.9-201.9
		c0,0,0,0,0,0c0-111.5,90.4-201.9,201.9-201.9l0,0C1909.2,424.7,1999.6,515.1,1999.6,626.6C1999.6,626.6,1999.6,626.6,1999.6,626.6z
		"/>
	<path id="circle3861" class="st29" d="M1999.6,1030.3c0,111.5-90.4,201.9-201.9,201.9c-111.5,0-201.9-90.4-201.9-201.9l0,0
		c0-111.5,90.4-201.9,201.9-201.9l0,0C1909.2,828.4,1999.6,918.8,1999.6,1030.3z"/>
	<path id="circle3867" class="st30" d="M2248.4,427.2c0,86.3-69.9,156.2-156.2,156.2c-86.3,0-156.2-69.9-156.2-156.2
		S2005.9,271,2092.2,271C2178.4,271,2248.4,340.9,2248.4,427.2z"/>
	<path id="circle3871" class="st31" d="M2248.4,1231.6c0,86.3-69.9,156.2-156.2,156.2c-86.3,0-156.2-69.9-156.2-156.2
		s69.9-156.2,156.2-156.2C2178.4,1075.3,2248.4,1145.3,2248.4,1231.6z"/>
	<path id="circle3873" class="st32" d="M2248.4,1635.8c0,86.3-69.9,156.2-156.2,156.2c-86.3,0-156.2-69.9-156.2-156.2
		c0-86.3,69.9-156.2,156.2-156.2C2178.4,1479.5,2248.4,1549.5,2248.4,1635.8z"/>
	<path id="circle3875" class="st33" d="M2836.4,21c0,86.3-69.9,156.2-156.2,156.2c-86.3,0-156.2-69.9-156.2-156.2
		s69.9-156.2,156.2-156.2C2766.4-135.2,2836.4-65.3,2836.4,21z"/>
	<path id="circle3879" class="st34" d="M2587.6,222.8c0,111.5-90.4,201.9-201.9,201.9c-111.5,0-201.9-90.4-201.9-201.9
		S2274.2,21,2385.7,21l0,0C2497.2,21,2587.6,111.4,2587.6,222.8L2587.6,222.8z"/>
	<path id="circle3883" class="st35" d="M2587.6,1030.3c0,111.5-90.4,201.9-201.9,201.9l0,0c-111.5,0-201.9-90.4-201.9-201.9l0,0
		c0-111.5,90.4-201.9,201.9-201.9l0,0C2497.2,828.4,2587.6,918.8,2587.6,1030.3L2587.6,1030.3z"/>
	<path id="circle3885" class="st36" d="M2587.6,1434c0,111.5-90.4,201.9-201.9,201.9l0,0c-111.5,0-201.9-90.4-201.9-201.9l0,0
		c0-111.5,90.4-201.9,201.9-201.9C2497.2,1232.1,2587.6,1322.5,2587.6,1434z"/>
	<path id="circle3887" class="st35" d="M2587.6,1837.7c0,111.5-90.4,201.9-201.9,201.9c-111.5,0-201.9-90.4-201.9-201.9l0,0
		c0-111.5,90.4-201.9,201.9-201.9l0,0C2497.2,1635.9,2587.6,1726.2,2587.6,1837.7L2587.6,1837.7L2587.6,1837.7z"/>
	<path id="circle3889" class="st37" d="M2836.4,427.2c0,86.3-69.9,156.2-156.2,156.2c-86.3,0-156.2-69.9-156.2-156.2
		S2593.9,271,2680.2,271C2766.4,271,2836.4,340.9,2836.4,427.2z"/>
	<path id="circle3891" class="st38" d="M2836.4,827.4c0,86.3-69.9,156.2-156.2,156.2c-86.3,0-156.2-69.9-156.2-156.2
		s69.9-156.2,156.2-156.2C2766.4,671.2,2836.4,741.1,2836.4,827.4L2836.4,827.4z"/>
	<path id="circle3895" class="st39" d="M2836.4,1635.8c0,86.3-69.9,156.2-156.2,156.2c-86.3,0-156.2-69.9-156.2-156.2
		c0-86.3,69.9-156.2,156.2-156.2C2766.4,1479.5,2836.4,1549.5,2836.4,1635.8z"/>
	<path id="circle3897" class="st40" d="M3175.6-180.9c0,111.5-90.4,201.9-201.9,201.9l0,0c-111.5,0-201.9-90.4-201.9-201.9v0
		c0-111.5,90.4-201.9,201.9-201.9l0,0C3085.2-382.7,3175.6-292.4,3175.6-180.9L3175.6-180.9z"/>
	<path id="circle3899" class="st41" d="M3175.6,222.8c0,111.5-90.4,201.9-201.9,201.9c-111.5,0-201.9-90.4-201.9-201.9
		S2862.2,21,2973.7,21l0,0C3085.2,21,3175.6,111.4,3175.6,222.8L3175.6,222.8z"/>
	<path id="circle3901" class="st42" d="M3175.6,626.6c0,111.5-90.4,201.9-201.9,201.9l0,0c-111.5,0-201.9-90.4-201.9-201.9
		c0,0,0,0,0,0c0-111.5,90.4-201.9,201.9-201.9l0,0C3085.2,424.7,3175.6,515.1,3175.6,626.6C3175.6,626.6,3175.6,626.6,3175.6,626.6z
		"/>
	<path id="circle3903" class="st43" d="M3175.6,1030.3c0,111.5-90.4,201.9-201.9,201.9l0,0c-111.5,0-201.9-90.4-201.9-201.9l0,0
		c0-111.5,90.4-201.9,201.9-201.9l0,0C3085.2,828.4,3175.6,918.8,3175.6,1030.3L3175.6,1030.3z"/>
	<path id="circle3907" class="st44" d="M3175.6,1837.7c0,111.5-90.4,201.9-201.9,201.9c-111.5,0-201.9-90.4-201.9-201.9l0,0
		c0-111.5,90.4-201.9,201.9-201.9l0,0C3085.2,1635.9,3175.6,1726.2,3175.6,1837.7L3175.6,1837.7L3175.6,1837.7z"/>
	<g id="flowRoot4715" transform="matrix(0.26458333,0,0,0.26458333,-31.126095,-273.21336)">
		<path id="path1092" class="st45" d="M218.1,295.6c0,19.8-8.7,34.5-26.1,44.1c10.2,4,18.5,10.8,24.9,20.5
			c6.4,9.4,9.6,20.5,9.6,33.3c0,19-6.3,34.6-18.9,47c-12.6,12-29.7,18.1-51.4,18.1c-21.7,0-38.9-6.2-51.8-18.5
			c-12.6-12.3-18.9-27.8-18.9-46.6c0-12.3,3.2-23.4,9.6-33.3c6.7-9.9,15.1-16.9,25.3-20.9c-17.7-9.9-26.5-24.5-26.5-43.7
			c0-16.1,5.8-29.4,17.3-40.1c11.8-10.7,26.8-16.1,44.9-16.1c18.5,0,33.3,5.4,44.5,16.1C212.4,266.2,218.1,279.5,218.1,295.6
			L218.1,295.6z M155.9,351.8c-14.4,0-25.6,3.7-33.3,11.2c-7.8,7.2-11.6,17.4-11.6,30.5c0,14.4,4.3,25.3,12.8,32.5
			c8.8,7,19.5,10.4,32.1,10.4c14.4,0,25.7-3.9,33.7-11.6c8-8,12-18.5,12-31.3c0-13.1-4-23.3-12-30.5
			C181.6,355.5,170.4,351.8,155.9,351.8z M156.3,261.5c-11.2,0-20.2,3.2-26.9,9.6c-6.7,6.4-10,14.8-10,25.3c0,8.6,3.1,16.3,9.2,23.3
			c6.4,6.7,15.7,10,27.7,10c12,0,21.3-3.3,27.7-10c6.7-7,10-14.7,10-23.3c0-9.9-3.5-18.2-10.4-24.9
			C176.7,264.8,167.6,261.5,156.3,261.5L156.3,261.5z"/>
		<path id="path1094" class="st45" d="M373,284.4c-5.9-14.7-17.1-22.1-33.7-22.1c-16.1,0-28.8,7-38.1,20.9
			c-9.1,13.6-13.6,33-13.6,58.2c14.7-17.1,32.4-25.7,53-25.7c19,0,34.4,6.3,46.2,18.9c11.8,12.3,17.7,28.8,17.7,49.4
			c0,21.9-6.6,39.7-19.7,53.4c-12.8,13.6-29.2,20.5-49,20.5c-22.7,0-40.5-8.6-53.4-25.7c-12.6-17.1-18.9-43.2-18.9-78.3
			c0-37.2,6.6-65.5,19.7-85.1c13.4-19.5,32.2-29.3,56.6-29.3c30,0,49.2,13.8,57.8,41.3L373,284.4z M378.6,385.5
			c0-14.2-3.7-25.6-11.2-34.1c-7.2-8.6-17.3-12.8-30.1-12.8c-13.1,0-23.9,3.9-32.5,11.6c-8.6,7.8-12.8,18.3-12.8,31.7
			c0,15.5,4.1,28.2,12.4,38.1c8.6,9.9,19.3,14.8,32.1,14.8c12.3,0,22.3-4.7,30.1-14C374.6,411.2,378.6,399.4,378.6,385.5
			L378.6,385.5z"/>
	</g>
	<g id="text4741">
	</g>
	<g id="flowRoot4749" transform="matrix(0.26458333,0,0,0.26458333,-30.391878,-166.3956)">
		<path id="path1098" class="st45" d="M225.9,1417.7c0,19.8-8.7,34.5-26.1,44.1c10.2,4,18.5,10.8,24.9,20.5
			c6.4,9.4,9.6,20.5,9.6,33.3c0,19-6.3,34.6-18.9,47c-12.6,12-29.7,18.1-51.4,18.1c-21.7,0-38.9-6.2-51.8-18.5
			c-12.6-12.3-18.9-27.8-18.9-46.6c0-12.3,3.2-23.4,9.6-33.3c6.7-9.9,15.1-16.9,25.3-20.9c-17.7-9.9-26.5-24.5-26.5-43.7
			c0-16.1,5.8-29.4,17.3-40.1c11.8-10.7,26.8-16.1,44.9-16.1c18.5,0,33.3,5.4,44.5,16.1C220.1,1388.3,225.9,1401.7,225.9,1417.7
			L225.9,1417.7z M163.7,1473.9c-14.4,0-25.6,3.7-33.3,11.2c-7.8,7.2-11.6,17.4-11.6,30.5c0,14.4,4.3,25.3,12.8,32.5
			c8.8,7,19.5,10.4,32.1,10.4c14.4,0,25.7-3.9,33.7-11.6c8-8,12-18.5,12-31.3c0-13.1-4-23.3-12-30.5
			C189.3,1477.7,178.1,1473.9,163.7,1473.9z M164.1,1383.6c-11.2,0-20.2,3.2-26.9,9.6c-6.7,6.4-10,14.8-10,25.3
			c0,8.6,3.1,16.3,9.2,23.3c6.4,6.7,15.7,10,27.7,10c12,0,21.3-3.3,27.7-10c6.7-7,10-14.7,10-23.3c0-9.9-3.5-18.2-10.4-24.9
			C184.4,1387,175.3,1383.6,164.1,1383.6L164.1,1383.6z"/>
		<path id="path1100" class="st45" d="M409.6,1367.2v16.9c-19,24.1-33.3,44.9-42.9,62.6c-9.4,17.7-17.5,37.3-24.5,59
			c-7,21.4-11.5,44.5-13.6,69.4h-25.7c2.1-30.5,8.7-60.2,19.7-89.1c11-29.2,28.6-61.1,53-95.9H271.5v-22.9H409.6z"/>
	</g>
	<g id="flowRoot4757" transform="matrix(0.26458333,0,0,0.26458333,-30.293549,47.239925)">
		<path id="path1103" class="st45" d="M139,3662.1c0,19.8-8.7,34.5-26.1,44.1c10.2,4,18.5,10.8,24.9,20.5c6.4,9.4,9.6,20.5,9.6,33.3
			c0,19-6.3,34.6-18.9,47c-12.6,12-29.7,18.1-51.4,18.1s-38.9-6.2-51.8-18.5c-12.6-12.3-18.9-27.8-18.9-46.6
			c0-12.3,3.2-23.4,9.6-33.3c6.7-9.9,15.1-16.9,25.3-20.9c-17.7-9.9-26.5-24.5-26.5-43.7c0-16.1,5.8-29.4,17.3-40.1
			c11.8-10.7,26.8-16.1,44.9-16.1c18.5,0,33.3,5.4,44.5,16.1C133.3,3632.6,139,3646,139,3662.1z M76.8,3718.2
			c-14.4,0-25.6,3.7-33.3,11.2c-7.8,7.2-11.6,17.4-11.6,30.5c0,14.4,4.3,25.3,12.8,32.5c8.8,7,19.5,10.4,32.1,10.4
			c14.4,0,25.7-3.9,33.7-11.6c8-8,12-18.5,12-31.3c0-13.1-4-23.3-12-30.5C102.5,3722,91.3,3718.2,76.8,3718.2z M77.2,3627.9
			c-11.2,0-20.2,3.2-26.9,9.6c-6.7,6.4-10,14.8-10,25.3c0,8.6,3.1,16.3,9.2,23.3c6.4,6.7,15.7,10,27.7,10s21.3-3.3,27.7-10
			c6.7-7,10-14.7,10-23.3c0-9.9-3.5-18.2-10.4-24.9C97.6,3631.3,88.5,3627.9,77.2,3627.9z"/>
		<path id="path1105" class="st45" d="M322.8,3611.5v16.9c-19,24.1-33.3,44.9-42.9,62.6c-9.4,17.7-17.5,37.3-24.5,59
			c-7,21.4-11.5,44.5-13.6,69.4H216c2.1-30.5,8.7-60.2,19.7-89.1c11-29.2,28.6-61.1,53-95.9H184.7v-22.9H322.8z"/>
		<path id="path1107" class="st45" d="M360.8,3662.9c3.2-17.9,10.8-31.8,22.9-41.7c12.3-10.2,27.7-15.2,46.2-15.2
			c19.8,0,35.6,5.5,47.4,16.5c12,11,18.1,25.4,18.1,43.3c0,9.6-1.6,18.3-4.8,26.1c-2.9,7.5-7.9,15-14.8,22.5
			c-7,7.5-22.7,20.7-47.4,39.7c-13.9,10.4-23.7,18.6-29.3,24.5c-5.6,5.9-9.9,11.9-12.8,18.1h109.6v22.9H354
			c1.3-13.9,5.9-26.6,13.6-38.1s23.4-26.5,47-44.9c23.3-17.7,38.3-30.9,44.9-39.7c6.7-9.1,10-19.1,10-30.1c0-11.8-3.5-21-10.4-27.7
			c-7-6.7-16.9-10-29.7-10c-23.8,0-38.7,12.7-44.5,38.1L360.8,3662.9z"/>
	</g>
	<g id="flowRoot4765" transform="matrix(0.26458333,0,0,0.26458333,-30.405924,154.05768)">
		<path id="path1110" class="st45" d="M225.7,4784.2c0,19.8-8.7,34.5-26.1,44.1c10.2,4,18.5,10.8,24.9,20.5
			c6.4,9.4,9.6,20.5,9.6,33.3c0,19-6.3,34.6-18.9,47c-12.6,12-29.7,18.1-51.4,18.1c-21.7,0-38.9-6.2-51.8-18.5
			c-12.6-12.3-18.9-27.8-18.9-46.6c0-12.3,3.2-23.4,9.6-33.3c6.7-9.9,15.1-16.9,25.3-20.9c-17.7-9.9-26.5-24.5-26.5-43.7
			c0-16.1,5.8-29.4,17.3-40.1c11.8-10.7,26.8-16.1,44.9-16.1c18.5,0,33.3,5.4,44.5,16.1C220,4754.8,225.7,4768.2,225.7,4784.2
			L225.7,4784.2z M163.5,4840.4c-14.4,0-25.6,3.7-33.3,11.2c-7.8,7.2-11.6,17.4-11.6,30.5c0,14.4,4.3,25.3,12.8,32.5
			c8.8,7,19.5,10.4,32.1,10.4c14.4,0,25.7-3.9,33.7-11.6c8-8,12-18.5,12-31.3c0-13.1-4-23.3-12-30.5
			C189.2,4844.1,178,4840.4,163.5,4840.4z M163.9,4750.1c-11.2,0-20.2,3.2-26.9,9.6c-6.7,6.4-10,14.8-10,25.3
			c0,8.6,3.1,16.3,9.2,23.3c6.4,6.7,15.7,10,27.7,10c12,0,21.3-3.3,27.7-10c6.7-7,10-14.7,10-23.3c0-9.9-3.5-18.2-10.4-24.9
			C184.2,4753.4,175.1,4750.1,163.9,4750.1L163.9,4750.1z"/>
		<path id="path1112" class="st45" d="M401.4,4784.2c0,19.8-8.7,34.5-26.1,44.1c10.2,4,18.5,10.8,24.9,20.5
			c6.4,9.4,9.6,20.5,9.6,33.3c0,19-6.3,34.6-18.9,47c-12.6,12-29.7,18.1-51.4,18.1c-21.7,0-38.9-6.2-51.8-18.5
			c-12.6-12.3-18.9-27.8-18.9-46.6c0-12.3,3.2-23.4,9.6-33.3c6.7-9.9,15.1-16.9,25.3-20.9c-17.7-9.9-26.5-24.5-26.5-43.7
			c0-16.1,5.8-29.4,17.3-40.1c11.8-10.7,26.8-16.1,44.9-16.1c18.5,0,33.3,5.4,44.5,16.1C395.6,4754.8,401.4,4768.2,401.4,4784.2
			L401.4,4784.2z M339.2,4840.4c-14.4,0-25.6,3.7-33.3,11.2c-7.8,7.2-11.6,17.4-11.6,30.5c0,14.4,4.3,25.3,12.8,32.5
			c8.8,7,19.5,10.4,32.1,10.4c14.4,0,25.7-3.9,33.7-11.6c8-8,12-18.5,12-31.3c0-13.1-4-23.3-12-30.5
			C364.9,4844.1,353.6,4840.4,339.2,4840.4L339.2,4840.4z M339.6,4750.1c-11.2,0-20.2,3.2-26.9,9.6c-6.7,6.4-10,14.8-10,25.3
			c0,8.6,3.1,16.3,9.2,23.3c6.4,6.7,15.7,10,27.7,10c12,0,21.3-3.3,27.7-10c6.7-7,10-14.7,10-23.3c0-9.9-3.5-18.2-10.4-24.9
			C359.9,4753.4,350.8,4750.1,339.6,4750.1L339.6,4750.1z"/>
	</g>
	<g id="flowRoot4773" transform="matrix(0.26458333,0,0,0.26458333,-31.126095,262.38962)">
		<path id="path1115" class="st45" d="M-64.7,5851v200h42c35.5,0,61.4-8,77.9-24.1c16.5-16.1,24.8-41.5,24.8-76.1
			c0-34.4-8.3-59.7-24.8-75.6c-16.4-16.1-42.4-24.1-77.9-24.1H-64.7z M-99.5,5822.4H-28c49.8,0,86.4,10.4,109.7,31.2
			c23.3,20.7,35,53.1,35,97.1c0,44.3-11.7,76.9-35.1,97.7c-23.4,20.8-59.9,31.2-109.5,31.2h-71.5L-99.5,5822.4z"/>
		<path id="path1117" class="st45" d="M256.5,5963.2v25.3H151.8v-25.3H256.5z"/>
		<path id="path1119" class="st45" d="M285.5,5975.2c0-73,24.5-109.6,73.4-109.6c49,0,73.4,36.3,73.4,108.8
			c0,36.7-6.3,64.3-18.9,83.1c-12.6,18.7-30.8,28.1-54.6,28.1c-23.8,0-42-9.4-54.6-28.1C291.7,6038.8,285.5,6011.4,285.5,5975.2z
			 M406.7,5975.6c0-58.1-16.1-87.1-48.2-87.1c-31.6,0-47.4,28.8-47.4,86.3c0,58.6,15.9,87.9,47.8,87.9
			C390.7,6062.7,406.7,6033.7,406.7,5975.6z"/>
		<path id="path1121" class="st45" d="M461.1,5975.2c0-73,24.5-109.6,73.4-109.6s73.4,36.3,73.4,108.8c0,36.7-6.3,64.3-18.9,83.1
			c-12.6,18.7-30.8,28.1-54.6,28.1c-23.8,0-42-9.4-54.6-28.1S461.1,6011.4,461.1,5975.2z M582.3,5975.6c0-58.1-16.1-87.1-48.2-87.1
			c-31.6,0-47.4,28.8-47.4,86.3c0,58.6,15.9,87.9,47.8,87.9S582.3,6033.7,582.3,5975.6L582.3,5975.6z"/>
	</g>
	<g id="flowRoot4789" transform="matrix(0.26458333,0,0,0.26458333,46.826038,-112.29562)">
		<path id="path1124" class="st45" d="M1045.1,1935.5v16.9c-19,24.1-33.3,44.9-42.9,62.6c-9.4,17.7-17.5,37.3-24.5,59
			c-7,21.4-11.5,44.5-13.6,69.4h-25.7c2.1-30.5,8.7-60.2,19.7-89.1c11-29.2,28.6-61.1,53-95.9H907v-22.9H1045.1z"/>
		<path id="path1126" class="st45" d="M1110,2103.3c5.9,14.7,17.1,22.1,33.7,22.1c31.8,0,49.1-26.6,51.8-79.9
			c-12.8,16.6-30.5,24.9-53,24.9c-18.7,0-34.1-6-46.2-18.1c-11.8-12-17.7-28.2-17.7-48.6c0-21.9,6.4-39.7,19.3-53.4
			c13.1-13.6,29.6-20.5,49.4-20.5c22.7,0,40.4,8.6,53,25.7c12.8,17.1,19.3,43.2,19.3,78.3c0,37.2-6.7,65.5-20.1,85.1
			c-13.1,19.5-31.8,29.3-56.2,29.3c-30,0-49.2-13.8-57.8-41.3L1110,2103.3z M1104.4,2002.1c0,13.6,3.7,24.7,11.2,33.3
			c7.5,8.3,17.5,12.4,30.1,12.4c13.4,0,24.2-3.6,32.5-10.8c8.6-7.5,12.8-17.9,12.8-31.3c0-15.5-4.3-28.2-12.8-38.1
			c-8.3-9.9-18.9-14.8-31.7-14.8c-12.3,0-22.5,4.8-30.5,14.4C1108.3,1976.6,1104.4,1988.2,1104.4,2002.1z"/>
	</g>
	<g id="flowRoot4797" transform="matrix(0.26458333,0,0,0.26458333,48.413338,-6.4416586)">
		<path id="path1129" class="st45" d="M1053.7,3098.1c0,19.8-8.7,34.5-26.1,44.1c10.2,4,18.5,10.8,24.9,20.5
			c6.4,9.4,9.6,20.5,9.6,33.3c0,19-6.3,34.6-18.9,47c-12.6,12-29.7,18.1-51.4,18.1s-38.9-6.2-51.8-18.5
			c-12.6-12.3-18.9-27.8-18.9-46.6c0-12.3,3.2-23.4,9.6-33.3c6.7-9.9,15.1-16.9,25.3-20.9c-17.7-9.9-26.5-24.5-26.5-43.7
			c0-16.1,5.8-29.4,17.3-40.1c11.8-10.7,26.8-16.1,44.9-16.1c18.5,0,33.3,5.4,44.5,16.1C1048,3068.7,1053.7,3082.1,1053.7,3098.1
			L1053.7,3098.1z M991.5,3154.3c-14.4,0-25.6,3.7-33.3,11.2c-7.8,7.2-11.6,17.4-11.6,30.5c0,14.4,4.3,25.3,12.8,32.5
			c8.8,7,19.5,10.4,32.1,10.4c14.4,0,25.7-3.9,33.7-11.6c8-8,12-18.5,12-31.3c0-13.1-4-23.3-12-30.5
			C1017.2,3158,1006,3154.3,991.5,3154.3z M991.9,3064c-11.2,0-20.2,3.2-26.9,9.6c-6.7,6.4-10,14.8-10,25.3c0,8.6,3.1,16.3,9.2,23.3
			c6.4,6.7,15.7,10,27.7,10c12,0,21.3-3.3,27.7-10c6.7-7,10-14.7,10-23.3c0-9.9-3.5-18.2-10.4-24.9
			C1012.3,3067.3,1003.2,3064,991.9,3064L991.9,3064z"/>
		<path id="path1131" class="st45" d="M1193.3,3043.9v211.5h-24.9v-169.8c-17.7,14.4-34.9,24.7-51.8,30.9v-22.9
			c14.4-7.5,26.6-15.1,36.5-22.9c10.2-7.8,17.8-16.7,22.9-26.9H1193.3z"/>
	</g>
	<g id="flowRoot4805" transform="matrix(0.26458333,0,0,0.26458333,46.811992,207.43917)">
		<path id="path1134" class="st45" d="M1036.9,5345c0,19.8-8.7,34.5-26.1,44.1c10.2,4,18.5,10.8,24.9,20.5
			c6.4,9.4,9.6,20.5,9.6,33.3c0,19-6.3,34.6-18.9,47c-12.6,12-29.7,18.1-51.4,18.1s-38.9-6.2-51.8-18.5
			c-12.6-12.3-18.9-27.8-18.9-46.6c0-12.3,3.2-23.4,9.6-33.3c6.7-9.9,15.1-16.9,25.3-20.9c-17.7-9.9-26.5-24.5-26.5-43.7
			c0-16.1,5.8-29.4,17.3-40.1c11.8-10.7,26.8-16.1,44.9-16.1c18.5,0,33.3,5.4,44.5,16.1C1031.2,5315.6,1036.9,5328.9,1036.9,5345
			L1036.9,5345z M974.7,5401.2c-14.4,0-25.6,3.7-33.3,11.2c-7.8,7.2-11.6,17.4-11.6,30.5c0,14.4,4.3,25.3,12.8,32.5
			c8.8,7,19.5,10.4,32.1,10.4c14.4,0,25.7-3.9,33.7-11.6c8-8,12-18.5,12-31.3c0-13.1-4-23.3-12-30.5
			C1000.4,5404.9,989.1,5401.2,974.7,5401.2z M975.1,5310.9c-11.2,0-20.2,3.2-26.9,9.6c-6.7,6.4-10,14.8-10,25.3
			c0,8.6,3.1,16.3,9.2,23.3c6.4,6.7,15.7,10,27.7,10c12,0,21.3-3.3,27.7-10c6.7-7,10-14.7,10-23.3c0-9.9-3.5-18.2-10.4-24.9
			C995.4,5314.2,986.3,5310.9,975.1,5310.9L975.1,5310.9z"/>
		<path id="path1136" class="st45" d="M1213,5294.4v22.9h-89.1l-10.8,59.8c13.1-8.6,27.6-12.8,43.3-12.8c20.1,0,36,6.4,47.8,19.3
			c12,12.6,18.1,29.2,18.1,49.8c0,23-6.7,41.1-20.1,54.2c-13.1,13.1-31.3,19.7-54.6,19.7c-19.3,0-35-4.8-47.4-14.4
			c-12-9.6-19.9-23.4-23.7-41.3l26.1-3.6c5.6,24.3,20.5,36.5,44.5,36.5c15.5,0,27.6-4.5,36.1-13.6c8.8-9.1,13.2-21,13.2-35.7
			c0-14.4-4.1-26-12.4-34.5c-8-8.8-19-13.2-32.9-13.2c-11.2,0-20.6,2.1-28.1,6.4c-7.2,4.3-13.5,8.7-18.9,13.2l-20.1-2l20.5-110.4
			H1213z"/>
	</g>
	<g id="flowRoot4813" transform="matrix(0.26458333,0,0,0.26458333,125.39869,-166.3675)">
		<path id="path1139" class="st45" d="M1870.5,1367.5v16.9c-19,24.1-33.3,44.9-42.9,62.6c-9.4,17.7-17.5,37.3-24.5,59
			c-7,21.4-11.5,44.5-13.6,69.4h-25.7c2.1-30.5,8.7-60.2,19.7-89.1c11-29.2,28.6-61.1,53-95.9h-103.9v-22.9H1870.5z"/>
		<path id="path1141" class="st45" d="M1910.2,1412c4-15,11.8-27,23.3-36.1c11.5-9.4,25.7-14,42.5-14c17.7,0,32,4.5,42.9,13.6
			c11,9.1,16.5,22.5,16.5,40.1c0,21.7-9.8,37.2-29.3,46.6c10.4,2.7,19.4,8.4,26.9,17.3c7.8,8.8,11.6,20.5,11.6,34.9
			c0,20.1-6.4,36.1-19.3,48.2c-12.8,11.8-30.2,17.7-52.2,17.7c-18.7,0-34.4-5.2-47-15.7c-12.6-10.7-20.5-25-23.7-42.9l22.9-4
			c2.7,12.3,8.2,22.1,16.5,29.3c8.3,7,18.7,10.4,31.3,10.4c13.9,0,25-3.7,33.3-11.2c8.3-7.8,12.4-18.5,12.4-32.1
			c0-11.8-4.3-21.1-12.8-28.1c-8.3-7.2-19.3-10.8-32.9-10.8c-5.9,0-12,0.8-18.5,2.4l2-22.9c14.2,0,24.1-1.2,29.7-3.6
			c5.9-2.4,10.7-5.5,14.4-9.2c4-4,6.8-8,8.4-12c1.6-4.3,2.4-8.8,2.4-13.6c0-10.2-3.6-17.9-10.8-23.3c-7-5.4-15.5-8-25.7-8
			c-20.6,0-34.6,10.4-42.1,31.3L1910.2,1412z"/>
	</g>
	<g id="flowRoot4821" transform="matrix(0.26458333,0,0,0.26458333,125.25822,-59.549738)">
		<path id="path1144" class="st45" d="M1869,2489.6v16.9c-19,24.1-33.3,44.9-42.9,62.6c-9.4,17.7-17.5,37.3-24.5,59
			c-7,21.4-11.5,44.5-13.6,69.4h-25.7c2.1-30.5,8.7-60.2,19.7-89.1c11-29.2,28.6-61.1,53-95.9H1731v-22.9H1869z"/>
		<path id="path1146" class="st45" d="M2015.8,2529c-5.9-14.7-17.1-22.1-33.7-22.1c-16.1,0-28.8,7-38.1,20.9
			c-9.1,13.6-13.6,33-13.6,58.2c14.7-17.1,32.4-25.7,53-25.7c19,0,34.4,6.3,46.2,18.9c11.8,12.3,17.7,28.8,17.7,49.4
			c0,21.9-6.6,39.7-19.7,53.4c-12.8,13.6-29.2,20.5-49,20.5c-22.7,0-40.5-8.6-53.4-25.7c-12.6-17.1-18.9-43.2-18.9-78.3
			c0-37.2,6.6-65.5,19.7-85.1c13.4-19.5,32.2-29.3,56.6-29.3c30,0,49.2,13.8,57.8,41.3L2015.8,2529z M2021.4,2630.1
			c0-14.2-3.7-25.6-11.2-34.1c-7.2-8.6-17.3-12.8-30.1-12.8c-13.1,0-23.9,3.9-32.5,11.6s-12.8,18.3-12.8,31.7
			c0,15.5,4.1,28.2,12.4,38.1c8.6,9.9,19.3,14.8,32.1,14.8c12.3,0,22.3-4.7,30.1-14C2017.4,2655.8,2021.4,2644,2021.4,2630.1
			L2021.4,2630.1z"/>
	</g>
	<g id="flowRoot4829" transform="matrix(0.26458333,0,0,0.26458333,125.3425,47.239925)">
		<path id="path1149" class="st45" d="M1869.9,3611.5v16.9c-19,24.1-33.3,44.9-42.9,62.6c-9.4,17.7-17.5,37.3-24.5,59
			c-7,21.4-11.5,44.5-13.6,69.4h-25.7c2.1-30.5,8.7-60.2,19.7-89.1c11-29.2,28.6-61.1,53-95.9h-103.9v-22.9H1869.9z"/>
		<path id="path1151" class="st45" d="M2045.6,3611.5v16.9c-19,24.1-33.3,44.9-42.9,62.6c-9.4,17.7-17.5,37.3-24.5,59
			c-7,21.4-11.5,44.5-13.6,69.4h-25.7c2.1-30.5,8.7-60.2,19.7-89.1c11-29.2,28.6-61.1,53-95.9h-103.9v-22.9H2045.6z"/>
	</g>
	<g id="flowRoot4837" transform="matrix(0.26458333,0,0,0.26458333,125.32846,154.05768)">
		<path id="path1154" class="st45" d="M1869.8,4733.6v16.9c-19,24.1-33.3,44.9-42.9,62.6c-9.4,17.7-17.5,37.3-24.5,59
			c-7,21.4-11.5,44.5-13.6,69.4H1763c2.1-30.5,8.7-60.2,19.7-89.1c11-29.2,28.6-61.1,53-95.9h-103.9v-22.9H1869.8z"/>
		<path id="path1156" class="st45" d="M2037.4,4784.2c0,19.8-8.7,34.5-26.1,44.1c10.2,4,18.5,10.8,24.9,20.5
			c6.4,9.4,9.6,20.5,9.6,33.3c0,19-6.3,34.6-18.9,47c-12.6,12-29.7,18.1-51.4,18.1c-21.7,0-38.9-6.2-51.8-18.5
			c-12.6-12.3-18.9-27.8-18.9-46.6c0-12.3,3.2-23.4,9.6-33.3c6.7-9.9,15.1-16.9,25.3-20.9c-17.7-9.9-26.5-24.5-26.5-43.7
			c0-16.1,5.8-29.4,17.3-40.1c11.8-10.7,26.8-16.1,44.9-16.1c18.5,0,33.3,5.4,44.5,16.1C2031.7,4754.8,2037.4,4768.2,2037.4,4784.2
			L2037.4,4784.2z M1975.2,4840.4c-14.4,0-25.6,3.7-33.3,11.2c-7.8,7.2-11.6,17.4-11.6,30.5c0,14.4,4.3,25.3,12.8,32.5
			c8.8,7,19.5,10.4,32.1,10.4c14.4,0,25.7-3.9,33.7-11.6c8-8,12-18.5,12-31.3c0-13.1-4-23.3-12-30.5
			C2000.9,4844.1,1989.7,4840.4,1975.2,4840.4L1975.2,4840.4z M1975.6,4750.1c-11.2,0-20.2,3.2-26.9,9.6c-6.7,6.4-10,14.8-10,25.3
			c0,8.6,3.1,16.3,9.2,23.3c6.4,6.7,15.7,10,27.7,10s21.3-3.3,27.7-10c6.7-7,10-14.7,10-23.3c0-9.9-3.5-18.2-10.4-24.9
			C1996,4753.4,1986.9,4750.1,1975.6,4750.1L1975.6,4750.1z"/>
	</g>
	<g id="flowRoot4845" transform="matrix(0.26458333,0,0,0.26458333,202.23243,100.49878)">
		<path id="path1159" class="st45" d="M2589.8,4171v16.9c-19,24.1-33.3,44.9-42.9,62.6c-9.4,17.7-17.5,37.3-24.5,59
			c-7,21.4-11.5,44.5-13.6,69.4h-25.7c2.1-30.5,8.7-60.2,19.7-89.1c11-29.2,28.6-61.1,53-95.9h-103.9V4171H2589.8z"/>
		<path id="path1161" class="st45" d="M2622.2,4274.5c0-73,24.5-109.6,73.4-109.6c49,0,73.4,36.3,73.4,108.8
			c0,36.7-6.3,64.3-18.9,83.1c-12.6,18.7-30.8,28.1-54.6,28.1c-23.8,0-42-9.4-54.6-28.1S2622.2,4310.6,2622.2,4274.5z
			 M2743.4,4274.9c0-58.1-16.1-87.1-48.2-87.1c-31.6,0-47.4,28.8-47.4,86.3c0,58.6,15.9,87.9,47.8,87.9
			C2727.5,4362,2743.4,4333,2743.4,4274.9L2743.4,4274.9z"/>
		<path id="path1163" class="st45" d="M2797.9,4274.5c0-73,24.5-109.6,73.4-109.6s73.4,36.3,73.4,108.8c0,36.7-6.3,64.3-18.9,83.1
			c-12.6,18.7-30.8,28.1-54.6,28.1s-42-9.4-54.6-28.1S2797.9,4310.6,2797.9,4274.5z M2919.1,4274.9c0-58.1-16.1-87.1-48.2-87.1
			c-31.6,0-47.4,28.8-47.4,86.3c0,58.6,15.9,87.9,47.8,87.9C2903.2,4362,2919.1,4333,2919.1,4274.9L2919.1,4274.9z"/>
	</g>
	<g id="flowRoot4853" transform="matrix(0.26458333,0,0,0.26458333,202.45718,207.63582)">
		<path id="path1166" class="st45" d="M2680,5296.5v16.9c-19,24.1-33.3,44.9-42.9,62.6c-9.4,17.7-17.5,37.3-24.5,59
			c-7,21.4-11.5,44.5-13.6,69.4h-25.7c2.1-30.5,8.7-60.2,19.7-89.1c11-29.2,28.6-61.1,53-95.9H2542v-22.9H2680z"/>
		<path id="path1168" class="st45" d="M2718.1,5347.9c3.2-17.9,10.8-31.8,22.9-41.7c12.3-10.2,27.7-15.2,46.2-15.2
			c19.8,0,35.6,5.5,47.4,16.5c12,11,18.1,25.4,18.1,43.3c0,9.6-1.6,18.3-4.8,26.1c-2.9,7.5-7.9,15-14.8,22.5
			c-7,7.5-22.7,20.7-47.4,39.7c-13.9,10.4-23.7,18.6-29.3,24.5c-5.6,5.9-9.9,11.9-12.8,18.1h109.6v22.9h-141.7
			c1.3-13.9,5.9-26.6,13.6-38.1c7.8-11.5,23.4-26.5,47-44.9c23.3-17.7,38.3-30.9,44.9-39.7c6.7-9.1,10-19.1,10-30.1
			c0-11.8-3.5-21-10.4-27.7c-7-6.7-16.9-10-29.7-10c-23.8,0-38.7,12.7-44.5,38.1L2718.1,5347.9z"/>
	</g>
	<g id="flowRoot4861" transform="matrix(0.26458333,0,0,0.26458333,280.22056,154.05768)">
		<path id="path1171" class="st45" d="M3489.3,4733.6v22.9h-89.1l-10.8,59.8c13.1-8.6,27.6-12.8,43.3-12.8c20.1,0,36,6.4,47.8,19.3
			c12,12.6,18.1,29.2,18.1,49.8c0,23-6.7,41.1-20.1,54.2c-13.1,13.1-31.3,19.7-54.6,19.7c-19.3,0-35-4.8-47.4-14.4
			c-12-9.6-19.9-23.4-23.7-41.3l26.1-3.6c5.6,24.3,20.5,36.5,44.5,36.5c15.5,0,27.6-4.5,36.1-13.6c8.8-9.1,13.2-21,13.2-35.7
			c0-14.4-4.1-26-12.4-34.5c-8-8.8-19-13.2-32.9-13.2c-11.2,0-20.6,2.1-28.1,6.4c-7.2,4.3-13.5,8.7-18.9,13.2l-20.1-2l20.5-110.4
			H3489.3z"/>
		<path id="path1173" class="st45" d="M3664.6,4784.2c0,19.8-8.7,34.5-26.1,44.1c10.2,4,18.5,10.8,24.9,20.5
			c6.4,9.4,9.6,20.5,9.6,33.3c0,19-6.3,34.6-18.9,47c-12.6,12-29.7,18.1-51.4,18.1s-38.9-6.2-51.8-18.5
			c-12.6-12.3-18.9-27.8-18.9-46.6c0-12.3,3.2-23.4,9.6-33.3c6.7-9.9,15.1-16.9,25.3-20.9c-17.7-9.9-26.5-24.5-26.5-43.7
			c0-16.1,5.8-29.4,17.3-40.1c11.8-10.7,26.8-16.1,44.9-16.1c18.5,0,33.3,5.4,44.5,16.1C3658.9,4754.8,3664.6,4768.2,3664.6,4784.2
			L3664.6,4784.2z M3602.4,4840.4c-14.4,0-25.6,3.7-33.3,11.2c-7.8,7.2-11.6,17.4-11.6,30.5c0,14.4,4.3,25.3,12.8,32.5
			c8.8,7,19.5,10.4,32.1,10.4c14.4,0,25.7-3.9,33.7-11.6c8-8,12-18.5,12-31.3c0-13.1-4-23.3-12-30.5
			C3628.1,4844.1,3616.9,4840.4,3602.4,4840.4L3602.4,4840.4z M3602.8,4750.1c-11.2,0-20.2,3.2-26.9,9.6c-6.7,6.4-10,14.8-10,25.3
			c0,8.6,3.1,16.3,9.2,23.3c6.4,6.7,15.7,10,27.7,10c12,0,21.3-3.3,27.7-10c6.7-7,10-14.7,10-23.3c0-9.9-3.5-18.2-10.4-24.9
			C3623.2,4753.4,3614.1,4750.1,3602.8,4750.1L3602.8,4750.1z"/>
	</g>
	<g id="flowRoot4869" transform="matrix(0.26458333,0,0,0.26458333,280.27674,260.90354)">
		<path id="path1176" class="st45" d="M3489.9,5856.1v22.9h-89.1l-10.8,59.8c13.1-8.6,27.6-12.8,43.3-12.8c20.1,0,36,6.4,47.8,19.3
			c12,12.6,18.1,29.2,18.1,49.8c0,23-6.7,41.1-20.1,54.2c-13.1,13.1-31.3,19.7-54.6,19.7c-19.3,0-35-4.8-47.4-14.4
			c-12-9.6-19.9-23.4-23.7-41.3l26.1-3.6c5.6,24.3,20.5,36.5,44.5,36.5c15.5,0,27.6-4.5,36.1-13.6c8.8-9.1,13.2-21,13.2-35.7
			c0-14.4-4.1-26-12.4-34.5c-8-8.8-19-13.2-32.9-13.2c-11.2,0-20.6,2.1-28.1,6.4c-7.2,4.3-13.5,8.7-18.9,13.2l-20.1-2l20.5-110.4
			L3489.9,5856.1z"/>
		<path id="path1178" class="st45" d="M3562.5,6023.8c5.9,14.7,17.1,22.1,33.7,22.1c31.8,0,49.1-26.6,51.8-79.9
			c-12.8,16.6-30.5,24.9-53,24.9c-18.7,0-34.1-6-46.2-18.1c-11.8-12-17.7-28.2-17.7-48.6c0-21.9,6.4-39.7,19.3-53.4
			c13.1-13.6,29.6-20.5,49.4-20.5c22.7,0,40.4,8.6,53,25.7c12.8,17.1,19.3,43.2,19.3,78.3c0,37.2-6.7,65.5-20.1,85.1
			c-13.1,19.5-31.8,29.3-56.2,29.3c-30,0-49.2-13.8-57.8-41.3L3562.5,6023.8z M3556.9,5922.7c0,13.6,3.7,24.7,11.2,33.3
			c7.5,8.3,17.5,12.4,30.1,12.4c13.4,0,24.2-3.6,32.5-10.8c8.6-7.5,12.8-17.9,12.8-31.3c0-15.5-4.3-28.2-12.8-38.1
			c-8.3-9.9-18.9-14.8-31.7-14.8c-12.3,0-22.5,4.8-30.5,14.4C3560.7,5897.2,3556.9,5908.8,3556.9,5922.7z"/>
	</g>
	<g id="flowRoot4877" transform="matrix(0.26458333,0,0,0.26458333,358.20076,207.46726)">
		<path id="path1181" class="st45" d="M4308.5,5294.7v22.9h-89.1l-10.8,59.8c13.1-8.6,27.6-12.8,43.3-12.8c20.1,0,36,6.4,47.8,19.3
			c12,12.6,18.1,29.2,18.1,49.8c0,23-6.7,41.1-20.1,54.2c-13.1,13.1-31.3,19.7-54.6,19.7c-19.3,0-35-4.8-47.4-14.4
			c-12-9.6-19.9-23.4-23.7-41.3l26.1-3.6c5.6,24.3,20.5,36.5,44.5,36.5c15.5,0,27.6-4.5,36.1-13.6c8.8-9.1,13.2-21,13.2-35.7
			c0-14.4-4.1-26-12.4-34.5c-8-8.8-19-13.2-32.9-13.2c-11.2,0-20.6,2.1-28.1,6.4c-7.2,4.3-13.5,8.7-18.9,13.2l-20.1-2l20.5-110.4
			H4308.5z"/>
		<path id="path1183" class="st45" d="M4355.8,5339.3c4-15,11.8-27,23.3-36.1c11.5-9.4,25.7-14,42.5-14c17.7,0,32,4.5,42.9,13.6
			s16.5,22.5,16.5,40.1c0,21.7-9.8,37.2-29.3,46.6c10.4,2.7,19.4,8.4,26.9,17.3c7.8,8.8,11.6,20.5,11.6,34.9
			c0,20.1-6.4,36.1-19.3,48.2c-12.8,11.8-30.2,17.7-52.2,17.7c-18.7,0-34.4-5.2-47-15.7c-12.6-10.7-20.5-25-23.7-42.9l22.9-4
			c2.7,12.3,8.2,22.1,16.5,29.3c8.3,7,18.7,10.4,31.3,10.4c13.9,0,25-3.7,33.3-11.2c8.3-7.8,12.4-18.5,12.4-32.1
			c0-11.8-4.3-21.1-12.8-28.1c-8.3-7.2-19.3-10.8-32.9-10.8c-5.9,0-12,0.8-18.5,2.4l2-22.9c14.2,0,24.1-1.2,29.7-3.6
			c5.9-2.4,10.7-5.5,14.4-9.2c4-4,6.8-8,8.4-12c1.6-4.3,2.4-8.8,2.4-13.6c0-10.2-3.6-17.9-10.8-23.3c-7-5.4-15.5-8-25.7-8
			c-20.6,0-34.6,10.4-42.1,31.3L4355.8,5339.3z"/>
	</g>
	<g id="flowRoot4885" transform="matrix(0.26458333,0,0,0.26458333,358.2429,100.52688)">
		<path id="path1186" class="st45" d="M4309,4171.3v22.9h-89.1l-10.8,59.8c13.1-8.6,27.6-12.8,43.3-12.8c20.1,0,36,6.4,47.8,19.3
			c12,12.6,18.1,29.2,18.1,49.8c0,23-6.7,41.1-20.1,54.2c-13.1,13.1-31.3,19.7-54.6,19.7c-19.3,0-35-4.8-47.4-14.4
			c-12-9.6-19.9-23.4-23.7-41.3l26.1-3.6c5.6,24.3,20.5,36.5,44.5,36.5c15.5,0,27.6-4.5,36.1-13.6c8.8-9.1,13.2-21,13.2-35.7
			c0-14.4-4.1-26-12.4-34.5c-8-8.8-19-13.2-32.9-13.2c-11.2,0-20.6,2.1-28.1,6.4c-7.2,4.3-13.5,8.7-18.9,13.2l-20.1-2l20.5-110.4
			H4309z"/>
		<path id="path1188" class="st45" d="M4354.7,4222.7c3.2-17.9,10.8-31.8,22.9-41.7c12.3-10.2,27.7-15.2,46.2-15.2
			c19.8,0,35.6,5.5,47.4,16.5c12,11,18.1,25.4,18.1,43.3c0,9.6-1.6,18.3-4.8,26.1c-2.9,7.5-7.9,15-14.8,22.5
			c-7,7.5-22.7,20.7-47.4,39.7c-13.9,10.4-23.7,18.6-29.3,24.5c-5.6,5.9-9.9,11.9-12.8,18.1h109.6v22.9h-141.7
			c1.3-13.9,5.9-26.6,13.6-38.1c7.8-11.5,23.4-26.5,47-44.9c23.3-17.7,38.3-30.9,44.9-39.7c6.7-9.1,10-19.1,10-30.1
			c0-11.8-3.5-21-10.4-27.7c-7-6.7-16.9-10-29.7-10c-23.8,0-38.7,12.7-44.5,38.1L4354.7,4222.7z"/>
	</g>
	<g id="flowRoot4893" transform="matrix(0.26458333,0,0,0.26458333,435.92193,47.324206)">
		<path id="path1191" class="st45" d="M4987,3768.1V3748l101.9-142.9h18.1v141.7h28.9v21.3H5107v52.2h-22.9v-52.2H4987z
			 M5084.1,3746.8v-99.5l-71,99.5H5084.1z"/>
		<path id="path1193" class="st45" d="M5172.3,3656.9c4-15,11.8-27,23.3-36.1c11.5-9.4,25.7-14,42.5-14c17.7,0,32,4.5,42.9,13.6
			c11,9.1,16.5,22.5,16.5,40.1c0,21.7-9.8,37.2-29.3,46.6c10.4,2.7,19.4,8.4,26.9,17.3c7.8,8.8,11.6,20.5,11.6,34.9
			c0,20.1-6.4,36.1-19.3,48.2c-12.8,11.8-30.2,17.7-52.2,17.7c-18.7,0-34.4-5.2-47-15.7c-12.6-10.7-20.5-25-23.7-42.9l22.9-4
			c2.7,12.3,8.2,22.1,16.5,29.3c8.3,7,18.7,10.4,31.3,10.4c13.9,0,25-3.7,33.3-11.2c8.3-7.8,12.4-18.5,12.4-32.1
			c0-11.8-4.3-21.1-12.8-28.1c-8.3-7.2-19.3-10.8-32.9-10.8c-5.9,0-12,0.8-18.5,2.4l2-22.9c14.2,0,24.1-1.2,29.7-3.6
			c5.9-2.4,10.7-5.5,14.4-9.2c4-4,6.8-8,8.4-12c1.6-4.3,2.4-8.8,2.4-13.6c0-10.2-3.6-17.9-10.8-23.3c-7-5.4-15.5-8-25.7-8
			c-20.6,0-34.6,10.4-42.1,31.3L5172.3,3656.9z"/>
	</g>
	<g id="flowRoot4901" transform="matrix(0.26458333,0,0,0.26458333,358.11648,-6.3573772)">
		<path id="path1196" class="st45" d="M4169.6,3204.1v-20.1l101.9-142.9h18.1v141.7h28.9v21.3h-28.9v52.2h-22.9v-52.2H4169.6z
			 M4266.7,3182.9v-99.5l-71,99.5H4266.7z"/>
		<path id="path1198" class="st45" d="M4462.1,3087.8c-5.9-14.7-17.1-22.1-33.7-22.1c-16.1,0-28.8,7-38.1,20.9
			c-9.1,13.6-13.6,33-13.6,58.2c14.7-17.1,32.4-25.7,53-25.7c19,0,34.4,6.3,46.2,18.9c11.8,12.3,17.7,28.8,17.7,49.4
			c0,21.9-6.6,39.7-19.7,53.4c-12.8,13.6-29.2,20.5-49,20.5c-22.7,0-40.5-8.6-53.4-25.7c-12.6-17.1-18.9-43.2-18.9-78.3
			c0-37.2,6.6-65.5,19.7-85.1c13.4-19.5,32.2-29.3,56.6-29.3c30,0,49.2,13.8,57.8,41.3L4462.1,3087.8z M4467.7,3188.9
			c0-14.2-3.7-25.6-11.2-34.1c-7.2-8.6-17.3-12.8-30.1-12.8c-13.1,0-23.9,3.9-32.5,11.6c-8.6,7.8-12.8,18.3-12.8,31.7
			c0,15.5,4.1,28.2,12.4,38.1c8.6,9.9,19.3,14.8,32.1,14.8c12.3,0,22.3-4.7,30.1-14C4463.7,3214.6,4467.7,3202.8,4467.7,3188.9
			L4467.7,3188.9z"/>
	</g>
	<g id="flowRoot4909" transform="matrix(0.26458333,0,0,0.26458333,435.73932,-59.535691)">
		<path id="path1201" class="st45" d="M4985.1,2645.5v-20.1l101.9-142.9h18.1v141.7h28.9v21.3h-28.9v52.2h-22.9v-52.2H4985.1z
			 M5082.2,2624.2v-99.5l-71,99.5H5082.2z"/>
		<path id="path1203" class="st45" d="M5163.2,2593.3c0-73,24.5-109.6,73.4-109.6c49,0,73.4,36.3,73.4,108.8
			c0,36.7-6.3,64.3-18.9,83.1s-30.8,28.1-54.6,28.1c-23.8,0-42-9.4-54.6-28.1S5163.2,2629.4,5163.2,2593.3z M5284.4,2593.7
			c0-58.1-16.1-87.1-48.2-87.1c-31.6,0-47.4,28.8-47.4,86.3c0,58.6,15.9,87.9,47.8,87.9C5268.4,2680.8,5284.4,2651.8,5284.4,2593.7z
			"/>
	</g>
	<g id="flowRoot4917" transform="matrix(0.26458333,0,0,0.26458333,358.14457,-112.23943)">
		<path id="path1206" class="st45" d="M4169.9,2091.8v-20.1l101.9-142.9h18.1v141.7h28.9v21.3h-28.9v52.2H4267v-52.2H4169.9z
			 M4267,2070.5V1971l-71,99.5H4267z"/>
		<path id="path1208" class="st45" d="M4483.6,1936.1v22.9h-89.1l-10.8,59.8c13.1-8.6,27.6-12.8,43.3-12.8c20.1,0,36,6.4,47.8,19.3
			c12,12.6,18.1,29.2,18.1,49.8c0,23-6.7,41.1-20.1,54.2c-13.1,13.1-31.3,19.7-54.6,19.7c-19.3,0-35-4.8-47.4-14.4
			c-12-9.6-19.9-23.4-23.7-41.3l26.1-3.6c5.6,24.3,20.5,36.5,44.5,36.5c15.5,0,27.6-4.5,36.1-13.6c8.8-9.1,13.2-21,13.2-35.7
			c0-14.4-4.1-26-12.4-34.5c-8-8.8-19-13.2-32.9-13.2c-11.2,0-20.6,2.1-28.1,6.4c-7.2,4.3-13.5,8.7-18.9,13.2l-20.1-2l20.5-110.4
			H4483.6z"/>
	</g>
	<g id="flowRoot4925" transform="matrix(0.26458333,0,0,0.26458333,280.2346,-59.746395)">
		<path id="path1211" class="st45" d="M3489.5,2487.6v22.9h-89.1l-10.8,59.8c13.1-8.6,27.6-12.8,43.3-12.8c20.1,0,36,6.4,47.8,19.3
			c12,12.6,18.1,29.2,18.1,49.8c0,23-6.7,41.1-20.1,54.2c-13.1,13.1-31.3,19.7-54.6,19.7c-19.3,0-35-4.8-47.4-14.4
			c-12-9.6-19.9-23.4-23.7-41.3l26.1-3.6c5.6,24.3,20.5,36.5,44.5,36.5c15.5,0,27.6-4.5,36.1-13.6c8.8-9.1,13.2-21,13.2-35.7
			c0-14.4-4.1-26-12.4-34.5c-8-8.8-19-13.2-32.9-13.2c-11.2,0-20.6,2.1-28.1,6.4c-7.2,4.3-13.5,8.7-18.9,13.2l-20.1-2l20.5-110.4
			H3489.5z"/>
		<path id="path1213" class="st45" d="M3672.8,2487.6v16.9c-19,24.1-33.3,44.9-42.9,62.6c-9.4,17.7-17.5,37.3-24.5,59
			c-7,21.4-11.5,44.5-13.6,69.4H3566c2.1-30.5,8.7-60.2,19.7-89.1c11-29.2,28.6-61.1,53-95.9h-103.9v-22.9L3672.8,2487.6z"/>
	</g>
	<g id="flowRoot4933" transform="matrix(0.26458333,0,0,0.26458333,202.3729,-112.29562)">
		<path id="path1216" class="st45" d="M2650.3,1974.8c-5.9-14.7-17.1-22.1-33.7-22.1c-16.1,0-28.8,7-38.1,20.9
			c-9.1,13.6-13.6,33-13.6,58.2c14.7-17.1,32.4-25.7,53-25.7c19,0,34.4,6.3,46.2,18.9c11.8,12.3,17.7,28.8,17.7,49.4
			c0,21.9-6.6,39.7-19.7,53.4c-12.8,13.6-29.2,20.5-49,20.5c-22.7,0-40.5-8.6-53.4-25.7c-12.6-17.1-18.9-43.2-18.9-78.3
			c0-37.2,6.6-65.5,19.7-85.1c13.4-19.5,32.2-29.3,56.6-29.3c30,0,49.2,13.8,57.8,41.3L2650.3,1974.8z M2655.9,2076
			c0-14.2-3.7-25.6-11.2-34.1c-7.2-8.6-17.3-12.8-30.1-12.8c-13.1,0-23.9,3.9-32.5,11.6c-8.6,7.8-12.8,18.3-12.8,31.7
			c0,15.5,4.1,28.2,12.4,38.1c8.6,9.9,19.3,14.8,32.1,14.8c12.3,0,22.3-4.7,30.1-14C2651.9,2101.7,2655.9,2089.9,2655.9,2076z"/>
		<path id="path1218" class="st45" d="M2854.8,1935.5v16.9c-19,24.1-33.3,44.9-42.9,62.6c-9.4,17.7-17.5,37.3-24.5,59
			c-7,21.4-11.5,44.5-13.6,69.4h-25.7c2.1-30.5,8.7-60.2,19.7-89.1c11-29.2,28.6-61.1,53-95.9h-103.9v-22.9H2854.8z"/>
	</g>
	<g id="flowRoot4941" transform="matrix(0.26458333,0,0,0.26458333,202.31672,-219.76518)">
		<path id="path1221" class="st45" d="M2649.7,845.8c-5.9-14.7-17.1-22.1-33.7-22.1c-16.1,0-28.8,7-38.1,20.9
			c-9.1,13.6-13.6,33-13.6,58.2c14.7-17.1,32.4-25.7,53-25.7c19,0,34.4,6.3,46.2,18.9c11.8,12.3,17.7,28.8,17.7,49.4
			c0,21.9-6.6,39.7-19.7,53.4c-12.8,13.6-29.2,20.5-49,20.5c-22.7,0-40.5-8.6-53.4-25.7c-12.6-17.1-18.9-43.2-18.9-78.3
			c0-37.2,6.6-65.5,19.7-85.1c13.4-19.5,32.2-29.3,56.6-29.3c30,0,49.2,13.8,57.8,41.3L2649.7,845.8z M2655.3,947
			c0-14.2-3.7-25.6-11.2-34.1c-7.2-8.6-17.3-12.8-30.1-12.8c-13.1,0-23.9,3.9-32.5,11.6c-8.6,7.8-12.8,18.3-12.8,31.7
			c0,15.5,4.1,28.2,12.4,38.1c8.6,9.9,19.3,14.8,32.1,14.8c12.3,0,22.3-4.7,30.1-14C2651.3,972.7,2655.3,960.9,2655.3,947z"/>
		<path id="path1223" class="st45" d="M2846.6,806.5v22.9h-89.1l-10.8,59.8c13.1-8.6,27.6-12.8,43.3-12.8c20.1,0,36,6.4,47.8,19.3
			c12,12.6,18.1,29.2,18.1,49.8c0,23-6.7,41.1-20.1,54.2c-13.1,13.1-31.3,19.7-54.6,19.7c-19.3,0-35-4.8-47.4-14.4
			c-12-9.6-19.9-23.4-23.7-41.3l26.1-3.6c5.6,24.3,20.5,36.5,44.5,36.5c15.5,0,27.6-4.5,36.1-13.6c8.8-9.1,13.2-21,13.2-35.7
			c0-14.4-4.1-26-12.4-34.5c-8-8.8-19-13.2-32.9-13.2c-11.2,0-20.6,2.1-28.1,6.4c-7.2,4.3-13.5,8.7-18.9,13.2l-20.1-2l20.5-110.4
			L2846.6,806.5z"/>
	</g>
	<g id="flowRoot4949" transform="matrix(0.26458333,0,0,0.26458333,280.10818,-273.21336)">
		<path id="path1226" class="st45" d="M3400.3,245v22.9h-89.1l-10.8,59.8c13.1-8.6,27.6-12.8,43.3-12.8c20.1,0,36,6.4,47.8,19.3
			c12,12.6,18.1,29.2,18.1,49.8c0,23-6.7,41.1-20.1,54.2c-13.1,13.1-31.3,19.7-54.6,19.7c-19.3,0-35-4.8-47.4-14.4
			c-12-9.6-19.9-23.4-23.7-41.3l26.1-3.6c5.6,24.3,20.5,36.5,44.5,36.5c15.5,0,27.6-4.5,36.1-13.6c8.8-9.1,13.2-21,13.2-35.7
			c0-14.4-4.1-26-12.4-34.5c-8-8.8-19-13.2-32.9-13.2c-11.2,0-20.6,2.1-28.1,6.4c-7.2,4.3-13.5,8.7-18.9,13.2l-20.1-2L3292,245
			L3400.3,245z"/>
		<path id="path1228" class="st45" d="M3554.7,284.4c-5.9-14.7-17.1-22.1-33.7-22.1c-16.1,0-28.8,7-38.1,20.9
			c-9.1,13.6-13.6,33-13.6,58.2c14.7-17.1,32.4-25.7,53-25.7c19,0,34.4,6.3,46.2,18.9c11.8,12.3,17.7,28.8,17.7,49.4
			c0,21.9-6.6,39.7-19.7,53.4c-12.8,13.6-29.2,20.5-49,20.5c-22.7,0-40.5-8.6-53.4-25.7c-12.6-17.1-18.9-43.2-18.9-78.3
			c0-37.2,6.6-65.5,19.7-85.1c13.4-19.5,32.2-29.3,56.6-29.3c30,0,49.2,13.8,57.8,41.3L3554.7,284.4z M3560.4,385.5
			c0-14.2-3.7-25.6-11.2-34.1c-7.2-8.6-17.3-12.8-30.1-12.8c-13.1,0-23.9,3.9-32.5,11.6c-8.6,7.8-12.8,18.3-12.8,31.7
			c0,15.5,4.1,28.2,12.4,38.1c8.6,9.9,19.3,14.8,32.1,14.8c12.3,0,22.3-4.7,30.1-14C3556.3,411.2,3560.4,399.4,3560.4,385.5z"/>
		<path id="path1230" class="st45" d="M3616,348.6c0-73,24.5-109.6,73.4-109.6c49,0,73.4,36.3,73.4,108.8c0,36.7-6.3,64.3-18.9,83.1
			c-12.6,18.7-30.8,28.1-54.6,28.1c-23.8,0-42-9.4-54.6-28.1C3622.3,412.1,3616,384.7,3616,348.6z M3737.2,349
			c0-58.1-16.1-87.1-48.2-87.1c-31.6,0-47.4,28.8-47.4,86.3c0,58.6,15.9,87.9,47.8,87.9S3737.2,407,3737.2,349L3737.2,349z"/>
	</g>
	<g id="flowRoot4957" transform="matrix(0.26458333,0,0,0.26458333,435.7955,-273.18527)">
		<path id="path1233" class="st45" d="M4995.3,289.9c4-15,11.8-27,23.3-36.1c11.5-9.4,25.7-14,42.5-14c17.7,0,32,4.5,42.9,13.6
			c11,9.1,16.5,22.5,16.5,40.1c0,21.7-9.8,37.2-29.3,46.6c10.4,2.7,19.4,8.4,26.9,17.3c7.8,8.8,11.6,20.5,11.6,34.9
			c0,20.1-6.4,36.1-19.3,48.2c-12.8,11.8-30.2,17.7-52.2,17.7c-18.7,0-34.4-5.2-47-15.7c-12.6-10.7-20.5-25-23.7-42.9l22.9-4
			c2.7,12.3,8.2,22.1,16.5,29.3c8.3,7,18.7,10.4,31.3,10.4c13.9,0,25-3.7,33.3-11.2c8.3-7.8,12.4-18.5,12.4-32.1
			c0-11.8-4.3-21.1-12.8-28.1c-8.3-7.2-19.3-10.8-32.9-10.8c-5.9,0-12,0.8-18.5,2.4l2-22.9c14.2,0,24.1-1.2,29.7-3.6
			c5.9-2.4,10.7-5.5,14.4-9.2c4-4,6.8-8,8.4-12c1.6-4.3,2.4-8.8,2.4-13.6c0-10.2-3.6-17.9-10.8-23.3c-7-5.4-15.5-8-25.7-8
			c-20.6,0-34.6,10.4-42.1,31.3L4995.3,289.9z"/>
		<path id="path1235" class="st45" d="M5307,245.3v16.9c-19,24.1-33.3,44.9-42.9,62.6c-9.4,17.7-17.5,37.3-24.5,59
			c-7,21.4-11.5,44.5-13.6,69.4h-25.7c2.1-30.5,8.7-60.2,19.7-89.1c11-29.2,28.6-61.1,53-95.9H5169v-22.9L5307,245.3z"/>
	</g>
	<g id="flowRoot4965" transform="matrix(0.26458333,0,0,0.26458333,435.78146,-166.3956)">
		<path id="path1238" class="st45" d="M4995.1,1411.7c4-15,11.8-27,23.3-36.1c11.5-9.4,25.7-14,42.5-14c17.7,0,32,4.5,42.9,13.6
			c11,9.1,16.5,22.5,16.5,40.1c0,21.7-9.8,37.2-29.3,46.6c10.4,2.7,19.4,8.4,26.9,17.3c7.8,8.8,11.6,20.5,11.6,34.9
			c0,20.1-6.4,36.1-19.3,48.2c-12.8,11.8-30.2,17.7-52.2,17.7c-18.7,0-34.4-5.2-47-15.7c-12.6-10.7-20.5-25-23.7-42.9l22.9-4
			c2.7,12.3,8.2,22.1,16.5,29.3c8.3,7,18.7,10.4,31.3,10.4c13.9,0,25-3.7,33.3-11.2c8.3-7.8,12.4-18.5,12.4-32.1
			c0-11.8-4.3-21.1-12.8-28.1c-8.3-7.2-19.3-10.8-32.9-10.8c-5.9,0-12,0.8-18.5,2.4l2-22.9c14.2,0,24.1-1.2,29.7-3.6
			c5.9-2.4,10.7-5.5,14.4-9.2c4-4,6.8-8,8.4-12c1.6-4.3,2.4-8.8,2.4-13.6c0-10.2-3.6-17.9-10.8-23.3c-7-5.4-15.5-8-25.7-8
			c-20.6,0-34.6,10.4-42.1,31.3L4995.1,1411.7z"/>
		<path id="path1240" class="st45" d="M5298.8,1417.7c0,19.8-8.7,34.5-26.1,44.1c10.2,4,18.5,10.8,24.9,20.5
			c6.4,9.4,9.6,20.5,9.6,33.3c0,19-6.3,34.6-18.9,47c-12.6,12-29.7,18.1-51.4,18.1s-38.9-6.2-51.8-18.5
			c-12.6-12.3-18.9-27.8-18.9-46.6c0-12.3,3.2-23.4,9.6-33.3c6.7-9.9,15.1-16.9,25.3-20.9c-17.7-9.9-26.5-24.5-26.5-43.7
			c0-16.1,5.8-29.4,17.3-40.1c11.8-10.7,26.8-16.1,44.9-16.1c18.5,0,33.3,5.4,44.5,16.1C5293.1,1388.3,5298.8,1401.7,5298.8,1417.7
			L5298.8,1417.7z M5236.6,1473.9c-14.4,0-25.6,3.7-33.3,11.2c-7.8,7.2-11.6,17.4-11.6,30.5c0,14.4,4.3,25.3,12.8,32.5
			c8.8,7,19.5,10.4,32.1,10.4c14.4,0,25.7-3.9,33.7-11.6c8-8,12-18.5,12-31.3c0-13.1-4-23.3-12-30.5
			C5262.3,1477.7,5251.1,1473.9,5236.6,1473.9L5236.6,1473.9z M5237,1383.6c-11.2,0-20.2,3.2-26.9,9.6c-6.7,6.4-10,14.8-10,25.3
			c0,8.6,3.1,16.3,9.2,23.3c6.4,6.7,15.7,10,27.7,10c12,0,21.3-3.3,27.7-10c6.7-7,10-14.7,10-23.3c0-9.9-3.5-18.2-10.4-24.9
			S5248.3,1383.6,5237,1383.6L5237,1383.6z"/>
	</g>
	<g id="flowRoot4973" transform="matrix(0.26458333,0,0,0.26458333,513.6492,-219.76518)">
		<path id="path1243" class="st45" d="M5811.6,857.9c3.2-17.9,10.8-31.8,22.9-41.7c12.3-10.2,27.7-15.2,46.2-15.2
			c19.8,0,35.6,5.5,47.4,16.5c12,11,18.1,25.4,18.1,43.3c0,9.6-1.6,18.3-4.8,26.1c-2.9,7.5-7.9,15-14.8,22.5
			c-7,7.5-22.7,20.7-47.4,39.7c-13.9,10.4-23.7,18.6-29.3,24.5c-5.6,5.9-9.9,11.9-12.8,18.1h109.6v22.9h-141.7
			c1.3-13.9,5.9-26.6,13.6-38.1c7.8-11.5,23.4-26.5,47-44.9c23.3-17.7,38.3-30.9,44.9-39.7c6.7-9.1,10-19.1,10-30.1
			c0-11.8-3.5-21-10.4-27.7s-16.9-10-29.7-10c-23.8,0-38.7,12.7-44.5,38.1L5811.6,857.9z"/>
		<path id="path1245" class="st45" d="M6096,845.8c-5.9-14.7-17.1-22.1-33.7-22.1c-16.1,0-28.8,7-38.1,20.9
			c-9.1,13.6-13.6,33-13.6,58.2c14.7-17.1,32.4-25.7,53-25.7c19,0,34.4,6.3,46.2,18.9c11.8,12.3,17.7,28.8,17.7,49.4
			c0,21.9-6.6,39.7-19.7,53.4c-12.8,13.6-29.2,20.5-49,20.5c-22.7,0-40.5-8.6-53.4-25.7c-12.6-17.1-18.9-43.2-18.9-78.3
			c0-37.2,6.6-65.5,19.7-85.1c13.4-19.5,32.2-29.3,56.6-29.3c30,0,49.2,13.8,57.8,41.3L6096,845.8z M6101.6,947
			c0-14.2-3.7-25.6-11.2-34.1c-7.2-8.6-17.3-12.8-30.1-12.8c-13.1,0-23.9,3.9-32.5,11.6c-8.6,7.8-12.8,18.3-12.8,31.7
			c0,15.5,4.1,28.2,12.4,38.1c8.6,9.9,19.3,14.8,32.1,14.8c12.3,0,22.3-4.7,30.1-14C6097.6,972.7,6101.6,960.9,6101.6,947
			L6101.6,947z"/>
	</g>
	<g id="flowRoot4981" transform="matrix(0.26458333,0,0,0.26458333,591.27228,-166.3956)">
		<path id="path1248" class="st45" d="M6627,1418.5c3.2-17.9,10.8-31.8,22.9-41.7c12.3-10.2,27.7-15.2,46.2-15.2
			c19.8,0,35.6,5.5,47.4,16.5c12,11,18.1,25.4,18.1,43.3c0,9.6-1.6,18.3-4.8,26.1c-2.9,7.5-7.9,15-14.8,22.5
			c-7,7.5-22.7,20.7-47.4,39.7c-13.9,10.4-23.7,18.6-29.3,24.5c-5.6,5.9-9.9,11.9-12.8,18.1h109.6v22.9h-141.7
			c1.3-13.9,5.9-26.6,13.6-38.1s23.4-26.5,47-44.9c23.3-17.7,38.3-30.9,44.9-39.7c6.7-9.1,10-19.1,10-30.1c0-11.8-3.5-21-10.4-27.7
			c-7-6.7-16.9-10-29.7-10c-23.8,0-38.7,12.7-44.5,38.1L6627,1418.5z"/>
		<path id="path1250" class="st45" d="M6797.1,1470.7c0-73,24.5-109.6,73.4-109.6s73.4,36.3,73.4,108.8c0,36.7-6.3,64.3-18.9,83.1
			c-12.6,18.7-30.8,28.1-54.6,28.1s-42-9.4-54.6-28.1C6803.4,1534.3,6797.1,1506.8,6797.1,1470.7z M6918.3,1471.1
			c0-58.1-16.1-87.1-48.2-87.1c-31.6,0-47.4,28.8-47.4,86.3c0,58.6,15.9,87.9,47.8,87.9C6902.4,1558.2,6918.3,1529.2,6918.3,1471.1z
			"/>
	</g>
	<g id="flowRoot4989" transform="matrix(0.26458333,0,0,0.26458333,513.80371,-112.29562)">
		<path id="path1253" class="st45" d="M5814.8,1980.1c4-15,11.8-27,23.3-36.1c11.5-9.4,25.7-14,42.5-14c17.7,0,32,4.5,42.9,13.6
			c11,9.1,16.5,22.5,16.5,40.1c0,21.7-9.8,37.2-29.3,46.6c10.4,2.7,19.4,8.4,26.9,17.3c7.8,8.8,11.6,20.5,11.6,34.9
			c0,20.1-6.4,36.1-19.3,48.2c-12.8,11.8-30.2,17.7-52.2,17.7c-18.7,0-34.4-5.2-47-15.7c-12.6-10.7-20.5-25-23.7-42.9l22.9-4
			c2.7,12.3,8.2,22.1,16.5,29.3c8.3,7,18.7,10.4,31.3,10.4c13.9,0,25-3.7,33.3-11.2c8.3-7.8,12.4-18.5,12.4-32.1
			c0-11.8-4.3-21.1-12.8-28.1c-8.3-7.2-19.3-10.8-32.9-10.8c-5.9,0-12,0.8-18.5,2.4l2-22.9c14.2,0,24.1-1.2,29.7-3.6
			c5.9-2.4,10.7-5.5,14.4-9.2c4-4,6.8-8,8.4-12c1.6-4.3,2.4-8.8,2.4-13.6c0-10.2-3.6-17.9-10.8-23.3c-7-5.4-15.5-8-25.7-8
			c-20.6,0-34.6,10.4-42.1,31.3L5814.8,1980.1z"/>
		<path id="path1255" class="st45" d="M5988.9,1986.9c3.2-17.9,10.8-31.8,22.9-41.7c12.3-10.2,27.7-15.2,46.2-15.2
			c19.8,0,35.6,5.5,47.4,16.5c12,11,18.1,25.4,18.1,43.3c0,9.6-1.6,18.3-4.8,26.1c-2.9,7.5-7.9,15-14.8,22.5
			c-7,7.5-22.7,20.7-47.4,39.7c-13.9,10.4-23.7,18.6-29.3,24.5c-5.6,5.9-9.9,11.9-12.8,18.1h109.6v22.9H5982
			c1.3-13.9,5.9-26.6,13.6-38.1s23.4-26.5,47-44.9c23.3-17.7,38.3-30.9,44.9-39.7c6.7-9.1,10-19.1,10-30.1c0-11.8-3.5-21-10.4-27.7
			c-7-6.7-16.9-10-29.7-10c-23.8,0-38.7,12.7-44.5,38.1L5988.9,1986.9z"/>
	</g>
	<g id="flowRoot5005" transform="matrix(0.26458333,0,0,0.26458333,591.49703,47.436581)">
		<path id="path1258" class="st45" d="M6629.4,3664.9c3.2-17.9,10.8-31.8,22.9-41.7c12.3-10.2,27.7-15.2,46.2-15.2
			c19.8,0,35.6,5.5,47.4,16.5c12,11,18.1,25.4,18.1,43.3c0,9.6-1.6,18.3-4.8,26.1c-2.9,7.5-7.9,15-14.8,22.5s-22.7,20.7-47.4,39.7
			c-13.9,10.4-23.7,18.6-29.3,24.5c-5.6,5.9-9.9,11.9-12.8,18.1h109.6v22.9h-141.7c1.3-13.9,5.9-26.6,13.6-38.1s23.4-26.5,47-44.9
			c23.3-17.7,38.3-30.9,44.9-39.7c6.7-9.1,10-19.1,10-30.1c0-11.8-3.5-21-10.4-27.7c-7-6.7-16.9-10-29.7-10
			c-23.8,0-38.7,12.7-44.5,38.1L6629.4,3664.9z"/>
		<path id="path1260" class="st45" d="M6805.1,3664.9c3.2-17.9,10.8-31.8,22.9-41.7c12.3-10.2,27.7-15.2,46.2-15.2
			c19.8,0,35.6,5.5,47.4,16.5c12,11,18.1,25.4,18.1,43.3c0,9.6-1.6,18.3-4.8,26.1c-2.9,7.5-7.9,15-14.8,22.5s-22.7,20.7-47.4,39.7
			c-13.9,10.4-23.7,18.6-29.3,24.5c-5.6,5.9-9.9,11.9-12.8,18.1h109.6v22.9h-141.7c1.3-13.9,5.9-26.6,13.6-38.1s23.4-26.5,47-44.9
			c23.3-17.7,38.3-30.9,44.9-39.7c6.7-9.1,10-19.1,10-30.1c0-11.8-3.5-21-10.4-27.7c-7-6.7-16.9-10-29.7-10
			c-23.8,0-38.7,12.7-44.5,38.1L6805.1,3664.9z"/>
	</g>
	<g id="flowRoot5013" transform="matrix(0.26458333,0,0,0.26458333,513.76157,100.52688)">
		<path id="path1263" class="st45" d="M5814.3,4215.8c4-15,11.8-27,23.3-36.1c11.5-9.4,25.7-14,42.5-14c17.7,0,32,4.5,42.9,13.6
			c11,9.1,16.5,22.5,16.5,40.1c0,21.7-9.8,37.2-29.3,46.6c10.4,2.7,19.4,8.4,26.9,17.3c7.8,8.8,11.6,20.5,11.6,34.9
			c0,20.1-6.4,36.1-19.3,48.2c-12.8,11.8-30.2,17.7-52.2,17.7c-18.7,0-34.4-5.2-47-15.7c-12.6-10.7-20.5-25-23.7-42.9l22.9-4
			c2.7,12.3,8.2,22.1,16.5,29.3c8.3,7,18.7,10.4,31.3,10.4c13.9,0,25-3.7,33.3-11.2c8.3-7.8,12.4-18.5,12.4-32.1
			c0-11.8-4.3-21.1-12.8-28.1c-8.3-7.2-19.3-10.8-32.9-10.8c-5.9,0-12,0.8-18.5,2.4l2-22.9c14.2,0,24.1-1.2,29.7-3.6
			c5.9-2.4,10.7-5.5,14.4-9.2c4-4,6.8-8,8.4-12c1.6-4.3,2.4-8.8,2.4-13.6c0-10.2-3.6-17.9-10.8-23.3c-7-5.4-15.5-8-25.7-8
			c-20.6,0-34.6,10.4-42.1,31.3L5814.3,4215.8z"/>
		<path id="path1265" class="st45" d="M5990,4215.8c4-15,11.8-27,23.3-36.1c11.5-9.4,25.7-14,42.5-14c17.7,0,32,4.5,42.9,13.6
			c11,9.1,16.5,22.5,16.5,40.1c0,21.7-9.8,37.2-29.3,46.6c10.4,2.7,19.4,8.4,26.9,17.3c7.8,8.8,11.6,20.5,11.6,34.9
			c0,20.1-6.4,36.1-19.3,48.2c-12.8,11.8-30.2,17.7-52.2,17.7c-18.7,0-34.4-5.2-47-15.7c-12.6-10.7-20.5-25-23.7-42.9l22.9-4
			c2.7,12.3,8.2,22.1,16.5,29.3c8.3,7,18.7,10.4,31.3,10.4c13.9,0,25-3.7,33.3-11.2c8.3-7.8,12.4-18.5,12.4-32.1
			c0-11.8-4.3-21.1-12.8-28.1c-8.3-7.2-19.3-10.8-32.9-10.8c-5.9,0-12,0.8-18.5,2.4l2-22.9c14.2,0,24.1-1.2,29.7-3.6
			c5.9-2.4,10.7-5.5,14.4-9.2c4-4,6.8-8,8.4-12c1.6-4.3,2.4-8.8,2.4-13.6c0-10.2-3.6-17.9-10.8-23.3c-7-5.4-15.5-8-25.7-8
			c-20.6,0-34.6,10.4-42.1,31.3L5990,4215.8z"/>
	</g>
	<g id="flowRoot5021" transform="matrix(0.26458333,0,0,0.26458333,513.59301,207.52345)">
		<path id="path1268" class="st45" d="M5812.6,5339.9c4-15,11.8-27,23.3-36.1c11.5-9.4,25.7-14,42.5-14c17.7,0,32,4.5,42.9,13.6
			s16.5,22.5,16.5,40.1c0,21.7-9.8,37.2-29.3,46.6c10.4,2.7,19.4,8.4,26.9,17.3c7.8,8.8,11.6,20.5,11.6,34.9
			c0,20.1-6.4,36.1-19.3,48.2c-12.8,11.8-30.2,17.7-52.2,17.7c-18.7,0-34.4-5.2-47-15.7c-12.6-10.7-20.5-25-23.7-42.9l22.9-4
			c2.7,12.3,8.2,22.1,16.5,29.3c8.3,7,18.7,10.4,31.3,10.4c13.9,0,25-3.7,33.3-11.2c8.3-7.8,12.4-18.5,12.4-32.1
			c0-11.8-4.3-21.1-12.8-28.1c-8.3-7.2-19.3-10.8-32.9-10.8c-5.9,0-12,0.8-18.5,2.4l2-22.9c14.2,0,24.1-1.2,29.7-3.6
			c5.9-2.4,10.7-5.5,14.4-9.2c4-4,6.8-8,8.4-12c1.6-4.3,2.4-8.8,2.4-13.6c0-10.2-3.6-17.9-10.8-23.3c-7-5.4-15.5-8-25.7-8
			c-20.6,0-34.6,10.4-42.1,31.3L5812.6,5339.9z"/>
		<path id="path1270" class="st45" d="M5978.6,5451V5431l101.9-142.9h18.1v141.7h28.9v21.3h-28.9v52.2h-22.9V5451H5978.6z
			 M6075.7,5429.8v-99.5l-71,99.5H6075.7z"/>
	</g>
	<g id="flowRoot5029" transform="matrix(0.26458333,0,0,0.26458333,591.28633,154.31053)">
		<path id="path1273" class="st45" d="M6627.2,4787.7c3.2-17.9,10.8-31.8,22.9-41.7c12.3-10.2,27.7-15.2,46.2-15.2
			c19.8,0,35.6,5.5,47.4,16.5c12,11,18.1,25.4,18.1,43.3c0,9.6-1.6,18.3-4.8,26.1c-2.9,7.5-7.9,15-14.8,22.5s-22.7,20.7-47.4,39.7
			c-13.9,10.4-23.7,18.6-29.3,24.5c-5.6,5.9-9.9,11.9-12.8,18.1H6762v22.9h-141.7c1.3-13.9,5.9-26.6,13.6-38.1s23.4-26.5,47-44.9
			c23.3-17.7,38.3-30.9,44.9-39.7c6.7-9.1,10-19.1,10-30.1c0-11.8-3.5-21-10.4-27.7c-7-6.7-16.9-10-29.7-10
			c-23.8,0-38.7,12.7-44.5,38.1L6627.2,4787.7z"/>
		<path id="path1275" class="st45" d="M6794.8,4892v-20.1l101.9-142.9h18.1v141.7h28.9v21.3h-28.9v52.2h-22.9V4892H6794.8z
			 M6891.9,4870.7v-99.5l-71,99.5H6891.9z"/>
	</g>
	<g id="flowRoot5037" transform="matrix(0.26458333,0,0,0.26458333,591.34251,260.90354)">
		<path id="path1278" class="st45" d="M6627.7,5907.5c3.2-17.9,10.8-31.8,22.9-41.7c12.3-10.2,27.7-15.2,46.2-15.2
			c19.8,0,35.6,5.5,47.4,16.5c12,11,18.1,25.4,18.1,43.3c0,9.6-1.6,18.3-4.8,26.1c-2.9,7.5-7.9,15-14.8,22.5s-22.7,20.7-47.4,39.7
			c-13.9,10.4-23.7,18.6-29.3,24.5c-5.6,5.9-9.9,11.9-12.8,18.1h109.6v22.9h-141.7c1.3-13.9,5.9-26.6,13.6-38.1s23.4-26.5,47-44.9
			c23.3-17.7,38.3-30.9,44.9-39.7c6.7-9.1,10-19.1,10-30.1c0-11.8-3.5-21-10.4-27.7s-16.9-10-29.7-10c-23.8,0-38.7,12.7-44.5,38.1
			L6627.7,5907.5z"/>
		<path id="path1280" class="st45" d="M6933.5,5856.1v22.9h-89.1l-10.8,59.8c13.1-8.6,27.6-12.8,43.3-12.8c20.1,0,36,6.4,47.8,19.3
			c12,12.6,18.1,29.2,18.1,49.8c0,23-6.7,41.1-20.1,54.2c-13.1,13.1-31.3,19.7-54.6,19.7c-19.3,0-35-4.8-47.4-14.4
			c-12-9.6-19.9-23.4-23.7-41.3l26.1-3.6c5.6,24.3,20.5,36.5,44.5,36.5c15.5,0,27.6-4.5,36.1-13.6c8.8-9.1,13.2-21,13.2-35.7
			c0-14.4-4.1-26-12.4-34.5c-8-8.8-19-13.2-32.9-13.2c-11.2,0-20.6,2.1-28.1,6.4c-7.2,4.3-13.5,8.7-18.9,13.2l-20.1-2l20.5-110.4
			L6933.5,5856.1z"/>
	</g>
	<g id="flowRoot5045" transform="matrix(0.26458333,0,0,0.26458333,668.35342,207.43917)">
		<path id="path1283" class="st45" d="M7442.4,5290.8v211.5h-24.9v-169.8c-17.7,14.4-34.9,24.7-51.8,30.9v-22.9
			c14.4-7.5,26.6-15.1,36.5-22.9c10.2-7.8,17.8-16.7,22.9-26.9H7442.4z"/>
		<path id="path1285" class="st45" d="M7662.3,5294.4v16.9c-19,24.1-33.3,44.9-42.9,62.6c-9.4,17.7-17.5,37.3-24.5,59
			c-7,21.4-11.5,44.5-13.6,69.4h-25.7c2.1-30.5,8.7-60.2,19.7-89.1c11-29.2,28.6-61.1,53-95.9h-103.9v-22.9H7662.3z"/>
		<path id="path1287" class="st45" d="M7694.7,5398c0-73,24.5-109.6,73.4-109.6s73.4,36.3,73.4,108.8c0,36.7-6.3,64.3-18.9,83.1
			c-12.6,18.7-30.8,28.1-54.6,28.1s-42-9.4-54.6-28.1C7701,5461.5,7694.7,5434.1,7694.7,5398z M7815.9,5398.4
			c0-58.1-16.1-87.1-48.2-87.1c-31.6,0-47.4,28.8-47.4,86.3c0,58.6,15.9,87.9,47.8,87.9C7800,5485.5,7815.9,5456.4,7815.9,5398.4
			L7815.9,5398.4z"/>
	</g>
	<g id="flowRoot5053" transform="matrix(0.26458333,0,0,0.26458333,746.14129,262.43176)">
		<path id="path1290" class="st45" d="M8203.4,5957.2v94.2h55.8c18.7,0,32.6-3.8,41.5-11.5c9.1-7.8,13.6-19.7,13.6-35.7
			c0-16.1-4.5-27.9-13.6-35.5c-9-7.7-22.8-11.5-41.5-11.5H8203.4z M8203.4,5851.5v77.5h51.5c17,0,29.6-3.2,37.9-9.5
			c8.4-6.4,12.6-16.2,12.6-29.3c0-13-4.2-22.7-12.6-29.1c-8.3-6.4-20.9-9.6-37.9-9.6H8203.4z M8168.6,5822.9h88.9
			c26.5,0,47,5.5,61.3,16.5c14.4,11,21.5,26.7,21.5,47c0,15.7-3.7,28.2-11,37.5c-7.3,9.3-18.1,15.1-32.4,17.4
			c17.1,3.7,30.4,11.4,39.8,23.1c9.5,11.6,14.3,26.1,14.3,43.6c0,23-7.8,40.7-23.4,53.2c-15.6,12.5-37.8,18.8-66.7,18.8h-92.3
			V5822.9z"/>
		<path id="path1292" class="st45" d="M8495,5963.6v25.3h-104.7v-25.3H8495z"/>
		<path id="path1294" class="st45" d="M8638.3,5911.5c-5.9-14.7-17.1-22.1-33.7-22.1c-16.1,0-28.8,7-38.1,20.9
			c-9.1,13.6-13.6,33-13.6,58.2c14.7-17.1,32.4-25.7,53-25.7c19,0,34.4,6.3,46.2,18.9c11.8,12.3,17.7,28.8,17.7,49.4
			c0,21.9-6.6,39.7-19.7,53.4c-12.8,13.6-29.2,20.5-49,20.5c-22.7,0-40.5-8.6-53.4-25.7c-12.6-17.1-18.9-43.2-18.9-78.3
			c0-37.2,6.6-65.5,19.7-85.1c13.4-19.5,32.2-29.3,56.6-29.3c30,0,49.2,13.8,57.8,41.3L8638.3,5911.5z M8643.9,6012.6
			c0-14.2-3.7-25.6-11.2-34.1c-7.2-8.6-17.3-12.8-30.1-12.8c-13.1,0-23.9,3.9-32.5,11.6c-8.6,7.8-12.8,18.3-12.8,31.7
			c0,15.5,4.1,28.2,12.4,38.1c8.6,9.9,19.3,14.8,32.1,14.8c12.3,0,22.3-4.7,30.1-14C8639.9,6038.3,8643.9,6026.5,8643.9,6012.6
			L8643.9,6012.6z"/>
	</g>
	<g id="flowRoot5061" transform="matrix(0.26458333,0,0,0.26458333,746.1132,48.964806)">
		<path id="path1297" class="st45" d="M8203.1,3714.7v94.2h55.8c18.7,0,32.6-3.8,41.5-11.5c9.1-7.8,13.6-19.7,13.6-35.7
			c0-16.1-4.5-27.9-13.6-35.5c-9-7.7-22.8-11.5-41.5-11.5H8203.1z M8203.1,3608.9v77.5h51.5c17,0,29.6-3.2,37.9-9.5
			c8.4-6.4,12.6-16.2,12.6-29.3c0-13-4.2-22.7-12.6-29.1c-8.3-6.4-20.9-9.6-37.9-9.6H8203.1z M8168.3,3580.3h88.9
			c26.5,0,47,5.5,61.3,16.5c14.4,11,21.5,26.7,21.5,47c0,15.7-3.7,28.2-11,37.5c-7.3,9.3-18.1,15.1-32.4,17.4
			c17.1,3.7,30.4,11.4,39.8,23.1c9.5,11.6,14.3,26.1,14.3,43.6c0,23-7.8,40.7-23.4,53.2c-15.6,12.5-37.8,18.8-66.7,18.8h-92.3
			V3580.3z"/>
		<path id="path1299" class="st45" d="M8494.7,3721.1v25.3H8390v-25.3H8494.7z"/>
		<path id="path1301" class="st45" d="M8521.2,3785.3v-20.1l101.9-142.9h18.1V3764h28.9v21.3h-28.9v52.2h-22.9v-52.2H8521.2z
			 M8618.3,3764v-99.5l-71,99.5H8618.3z"/>
	</g>
	<g id="flowRoot5069" transform="matrix(0.26458333,0,0,0.26458333,747.39711,-58.021514)">
		<path id="path1304" class="st45" d="M8268.1,2490.7l-47.2,128h94.6L8268.1,2490.7z M8248.5,2456.4h39.4l98,257.2h-36.2l-23.4-66
			h-115.9l-23.4,66h-36.7L8248.5,2456.4z"/>
		<path id="path1306" class="st45" d="M8507.9,2597.2v25.3h-104.7v-25.3H8507.9z"/>
		<path id="path1308" class="st45" d="M8544,2550.2c4-15,11.8-27,23.3-36.1c11.5-9.4,25.7-14,42.5-14c17.7,0,32,4.5,42.9,13.6
			c11,9.1,16.5,22.5,16.5,40.1c0,21.7-9.8,37.2-29.3,46.6c10.4,2.7,19.4,8.4,26.9,17.3c7.8,8.8,11.6,20.5,11.6,34.9
			c0,20.1-6.4,36.1-19.3,48.2c-12.8,11.8-30.2,17.7-52.2,17.7c-18.7,0-34.4-5.2-47-15.7c-12.6-10.7-20.5-25-23.7-42.9l22.9-4
			c2.7,12.3,8.2,22.1,16.5,29.3c8.3,7,18.7,10.4,31.3,10.4c13.9,0,25-3.7,33.3-11.2c8.3-7.8,12.4-18.5,12.4-32.1
			c0-11.8-4.3-21.1-12.8-28.1c-8.3-7.2-19.3-10.8-32.9-10.8c-5.9,0-12,0.8-18.5,2.4l2-22.9c14.2,0,24.1-1.2,29.7-3.6
			c5.9-2.4,10.7-5.5,14.4-9.2c4-4,6.8-8,8.4-12c1.6-4.3,2.4-8.8,2.4-13.6c0-10.2-3.6-17.9-10.8-23.3c-7-5.4-15.5-8-25.7-8
			c-20.6,0-34.6,10.4-42.1,31.3L8544,2550.2z"/>
	</g>
	<g id="flowRoot5077" transform="matrix(0.26458333,0,0,0.26458333,668.42366,-6.4837993)">
		<path id="path1311" class="st45" d="M7531,3043.5V3255h-24.9v-169.8c-17.7,14.4-34.9,24.7-51.8,30.9v-22.9
			c14.4-7.5,26.6-15.1,36.5-22.9c10.2-7.8,17.8-16.7,22.9-26.9H7531z"/>
		<path id="path1313" class="st45" d="M7743.2,3047.1v22.9h-89.1l-10.8,59.8c13.1-8.6,27.6-12.8,43.3-12.8c20.1,0,36,6.4,47.8,19.3
			c12,12.6,18.1,29.2,18.1,49.8c0,23-6.7,41.1-20.1,54.2c-13.1,13.1-31.3,19.7-54.6,19.7c-19.3,0-35-4.8-47.4-14.4
			c-12-9.6-19.9-23.4-23.7-41.3l26.1-3.6c5.6,24.3,20.5,36.5,44.5,36.5c15.5,0,27.6-4.5,36.1-13.6c8.8-9.1,13.2-21,13.2-35.7
			c0-14.4-4.1-26-12.4-34.5c-8-8.8-19-13.2-32.9-13.2c-11.2,0-20.6,2.1-28.1,6.4c-7.2,4.3-13.5,8.7-18.9,13.2l-20.1-2l20.5-110.4
			H7743.2z"/>
	</g>
	<g id="flowRoot5085" transform="matrix(0.26458333,0,0,0.26458333,668.35342,-112.28157)">
		<path id="path1316" class="st45" d="M7442.4,1932.1v211.5h-24.9v-169.8c-17.7,14.4-34.9,24.7-51.8,30.9v-22.9
			c14.4-7.5,26.6-15.1,36.5-22.9c10.2-7.8,17.8-16.7,22.9-26.9H7442.4z"/>
		<path id="path1318" class="st45" d="M7516.6,2091.4v-20.1l101.9-142.9h18.1v141.7h28.9v21.3h-28.9v52.2h-22.9v-52.2H7516.6z
			 M7613.7,2070.1v-99.5l-71,99.5H7613.7z"/>
		<path id="path1320" class="st45" d="M7694.7,2039.2c0-73,24.5-109.6,73.4-109.6s73.4,36.3,73.4,108.8c0,36.7-6.3,64.3-18.9,83.1
			c-12.6,18.7-30.8,28.1-54.6,28.1s-42-9.4-54.6-28.1C7701,2102.7,7694.7,2075.3,7694.7,2039.2z M7815.9,2039.6
			c0-58.1-16.1-87.1-48.2-87.1c-31.6,0-47.4,28.8-47.4,86.3c0,58.6,15.9,87.9,47.8,87.9C7800,2126.7,7815.9,2097.7,7815.9,2039.6
			L7815.9,2039.6z"/>
	</g>
	<g id="flowRoot5093" transform="matrix(0.26458333,0,0,0.26458333,668.57817,-219.59661)">
		<path id="path1323" class="st45" d="M7532.6,804.7v211.5h-24.9V846.4c-17.7,14.4-34.9,24.7-51.8,30.9v-22.9
			c14.4-7.5,26.6-15.1,36.5-22.9c10.2-7.8,17.8-16.7,22.9-26.9H7532.6z"/>
		<path id="path1325" class="st45" d="M7614.8,859.7c3.2-17.9,10.8-31.8,22.9-41.7c12.3-10.2,27.7-15.2,46.2-15.2
			c19.8,0,35.6,5.5,47.4,16.5c12,11,18.1,25.4,18.1,43.3c0,9.6-1.6,18.3-4.8,26.1c-2.9,7.5-7.9,15-14.8,22.5
			c-7,7.5-22.7,20.7-47.4,39.7c-13.9,10.4-23.7,18.6-29.3,24.5c-5.6,5.9-9.9,11.9-12.8,18.1h109.6v22.9H7608
			c1.3-13.9,5.9-26.6,13.6-38.1c7.8-11.5,23.4-26.5,47-44.9c23.3-17.7,38.3-30.9,44.9-39.7c6.7-9.1,10-19.1,10-30.1
			c0-11.8-3.5-21-10.4-27.7c-7-6.7-16.9-10-29.7-10c-23.8,0-38.7,12.7-44.5,38.1L7614.8,859.7z"/>
	</g>
	<g id="flowRoot5101" transform="matrix(0.26458333,0,0,0.26458333,746.3239,-164.67072)">
		<path id="path1328" class="st45" d="M8205.3,1470.4v94.2h55.8c18.7,0,32.6-3.8,41.5-11.5c9.1-7.8,13.6-19.7,13.6-35.7
			c0-16.1-4.5-27.9-13.6-35.5c-9-7.7-22.8-11.5-41.5-11.5H8205.3z M8205.3,1364.6v77.5h51.5c17,0,29.6-3.2,37.9-9.5
			c8.4-6.4,12.6-16.2,12.6-29.3c0-13-4.2-22.7-12.6-29.1c-8.3-6.4-20.9-9.6-37.9-9.6H8205.3z M8170.5,1336h88.9
			c26.5,0,47,5.5,61.3,16.5c14.4,11,21.5,26.7,21.5,47c0,15.7-3.7,28.2-11,37.5c-7.3,9.3-18.1,15.1-32.4,17.4
			c17.1,3.7,30.4,11.4,39.8,23.1c9.5,11.6,14.3,26.1,14.3,43.6c0,23-7.8,40.7-23.4,53.2c-15.6,12.5-37.8,18.8-66.7,18.8h-92.3V1336z
			"/>
		<path id="path1330" class="st45" d="M8496.9,1476.8v25.3h-104.7v-25.3H8496.9z"/>
		<path id="path1332" class="st45" d="M8531.5,1436.7c3.2-17.9,10.8-31.8,22.9-41.7c12.3-10.2,27.7-15.2,46.2-15.2
			c19.8,0,35.6,5.5,47.4,16.5c12,11,18.1,25.4,18.1,43.3c0,9.6-1.6,18.3-4.8,26.1c-2.9,7.5-7.9,15-14.8,22.5
			c-7,7.5-22.7,20.7-47.4,39.7c-13.9,10.4-23.7,18.6-29.3,24.5c-5.6,5.9-9.9,11.9-12.8,18.1h109.6v22.9h-141.7
			c1.3-13.9,5.9-26.6,13.6-38.1s23.4-26.5,47-44.9c23.3-17.7,38.3-30.9,44.9-39.7c6.7-9.1,10-19.1,10-30.1c0-11.8-3.5-21-10.4-27.7
			s-16.9-10-29.7-10c-23.8,0-38.7,12.7-44.5,38.1L8531.5,1436.7z"/>
	</g>
	<g id="flowRoot5109" transform="matrix(0.26458333,0,0,0.26458333,748.88608,-271.48848)">
		<path id="path1335" class="st45" d="M8283.7,248.1l-47.2,128h94.6L8283.7,248.1z M8264.1,213.9h39.4l98,257.2h-36.2l-23.4-66H8226
			l-23.4,66h-36.7L8264.1,213.9z"/>
		<path id="path1337" class="st45" d="M8523.5,354.6v25.3h-104.7v-25.3H8523.5z"/>
		<path id="path1339" class="st45" d="M8651.5,259.5V471h-24.9V301.3c-17.7,14.4-34.9,24.7-51.8,30.9v-22.9
			c14.4-7.5,26.6-15.1,36.5-22.9c10.2-7.8,17.8-16.7,22.9-26.9L8651.5,259.5z"/>
	</g>
	<g id="flowRoot1044">
	</g>
</g>
<g id="layer2" class="st46">
</g>
</svg>
